<svg width="81" height="74" viewBox="0 0 81 74" fill="none" xmlns="http://www.w3.org/2000/svg">
<path d="M26.3587 39.3843C25.7465 39.4886 25.2103 39.555 24.6924 39.6694C19.9338 40.7173 15.1916 41.8027 10.4178 42.8115C8.73531 43.1667 6.97945 43.2553 5.16108 42.8898C2.94517 42.4442 1.19002 40.9194 0.62848 38.9066C0.0384177 36.7979 0.730374 35.0417 2.65938 34.0908C5.23172 32.8223 8.0634 32.1123 11.0426 31.742C14.264 31.341 17.5602 31.4574 20.8688 31.6743C23.3651 31.8357 25.8308 31.8439 28.1821 31.2769C28.3139 31.2456 28.4761 31.2505 28.5754 31.1817C28.8529 30.9869 29.3078 30.7894 29.3105 30.5411C29.3142 30.2863 28.9232 29.8621 28.6097 29.7067C26.8362 28.823 25.0506 27.9602 23.2407 27.1581C18.1378 24.8986 12.8411 23.2793 7.61608 21.4187C5.84092 20.7862 4.08255 19.8434 2.53384 18.7531C0.591351 17.384 -0.154584 15.4562 0.271272 13.3736C0.703169 11.2617 2.12593 10.0768 4.41678 9.7599C8.26054 9.22781 12.0665 9.88604 15.8837 11.3121C21.2083 13.3003 25.9572 16.1542 30.1611 19.9709C31.6686 21.3388 33.404 22.4902 35.0361 23.7408C35.107 23.6976 35.1789 23.6527 35.2498 23.6096C35.2174 22.9393 35.183 22.2678 35.1516 21.5957C35.005 18.3767 34.7438 15.1453 34.7494 11.9441C34.7557 9.29927 35.3735 6.78092 36.5331 4.47723C36.9719 3.6048 37.5131 2.76116 38.1568 2.0211C39.6538 0.299931 41.7763 -0.0675077 44.2236 0.567726C46.0046 1.03078 47.0294 2.25068 47.5842 3.83455C48.756 7.17594 48.7312 10.4244 48.0637 13.6288C47.3921 16.8401 46.3969 19.923 45.0243 22.8628C44.7837 23.3779 44.3822 24.0546 45.0469 24.5014C45.4407 24.7661 46.2191 24.627 46.7593 24.5021C47.2124 24.397 47.6012 24.0843 47.9648 23.8061C51.8608 20.8215 55.6969 17.7719 59.6538 14.8551C61.4596 13.5224 63.5101 12.4361 66.0833 12.4971C68.5866 12.5574 70.857 13.5038 72.8141 15.1756C74.9762 17.0219 75.5072 19.65 74.4933 22.3717C73.2278 25.7633 70.4848 27.5008 66.7679 28.1319C62.3354 28.8822 57.8632 29.5139 53.4317 30.2673C52.3451 30.4527 51.3289 30.8866 50.3257 31.2837C50.0734 31.3832 49.9919 31.7823 49.83 32.0438C50.1273 32.2225 50.4106 32.4818 50.725 32.5652C55.7445 33.9007 60.7861 35.1276 65.7865 36.5571C70.3497 37.8628 74.4235 40.091 77.3905 43.885C78.2467 44.9796 78.9936 46.1652 79.6189 47.3693C81.089 50.194 79.7682 52.4676 76.6113 52.6956C70.9597 53.1065 65.7057 51.5258 60.8242 48.1703C57.9359 46.1851 55.0931 44.1351 52.1785 42.1908C51.2997 41.604 50.2498 41.2478 49.2618 40.8314C48.5963 40.55 48.0318 40.7356 47.6178 41.1809C47.2918 41.5345 47.0116 41.9262 46.7079 42.2975C46.2434 42.8677 46.2807 43.4498 46.8454 44.0841C48.4285 45.8646 50.0097 47.6487 51.5726 49.4455C55.1635 53.5741 58.1749 57.9799 60.0992 62.8768C60.5998 64.1468 61.0124 65.4663 61.2292 66.7686C61.8633 70.5914 59.4428 73.106 55.3549 73.0627C52.6245 73.0348 50.604 71.6697 48.916 69.6535C44.6728 64.5832 42.0044 58.9647 40.3189 52.9934C39.8878 51.4623 39.2895 49.9538 38.753 48.4366C38.6736 48.2085 38.5283 47.9868 38.383 47.7792C37.6607 46.7526 36.8129 46.6415 36.0598 47.4725C34.6558 49.0232 34.0482 50.8865 34.1871 53.0454C34.3313 55.2796 34.3345 57.4863 33.8063 59.615C33.2882 61.7028 32.5925 63.6577 30.5938 64.8463C27.9094 66.4402 25.0963 66.6775 21.7889 65.0995C15.8426 62.262 14.677 56.8666 16.4193 53.0239C17.6958 50.2084 19.7355 47.9691 21.8106 45.7386C23.4748 43.9482 25.0477 42.1003 26.1405 39.9122C26.2153 39.7639 26.2698 39.6039 26.3598 39.3825L26.3587 39.3843Z" fill="#747B57"/>
</svg>
