<svg width="19" height="18" viewBox="0 0 19 18" fill="none" xmlns="http://www.w3.org/2000/svg">
<path d="M13.5789 9.07926C13.5795 8.53545 13.4771 8.00012 13.2806 7.50042H15.8139C15.9379 8.01676 16.0005 8.54652 15.9999 9.07865V9.07936C15.9999 12.4079 13.5862 15.1725 10.4135 15.7184L12.9661 11.2973C13.3681 10.6274 13.58 9.86059 13.5789 9.07926ZM13.5789 9.07926C13.5789 9.0796 13.5789 9.07995 13.5789 9.08029L12.9473 9.07936L13.5789 9.07833C13.5789 9.07864 13.5789 9.07895 13.5789 9.07926ZM7.89509 9.86775L7.89594 9.86921C8.03322 10.1074 8.23032 10.3055 8.46773 10.4441C8.70515 10.5826 8.97463 10.6568 9.24951 10.6592C9.52439 10.6616 9.79512 10.5921 10.0349 10.4577C10.2733 10.3241 10.4729 10.1309 10.6142 9.89697L10.6304 9.86895L7.89509 9.86775ZM7.89509 9.86775L7.87739 9.83722M7.89509 9.86775L7.87739 9.83722M7.87739 9.83722C7.74607 9.59705 7.67944 9.32683 7.68406 9.05308C7.68873 8.77726 7.76557 8.50748 7.90693 8.2706C8.0483 8.03373 8.24926 7.83802 8.4898 7.70297C8.73033 7.56792 9.00205 7.49825 9.2779 7.50089C9.55374 7.50353 9.82407 7.57839 10.062 7.71802C10.2999 7.85764 10.4971 8.05716 10.6339 8.2967C10.7707 8.53624 10.8423 8.80744 10.8417 9.08329C10.8411 9.35904 10.7683 9.62981 10.6305 9.86866L7.87739 9.83722ZM9.26236 2.34252L9.26333 2.34252C10.4461 2.34204 11.6081 2.6531 12.6325 3.2444C13.3215 3.64212 13.9319 4.1572 14.4376 4.76357H9.26316C9.26313 4.76357 9.2631 4.76357 9.26307 4.76357C8.4176 4.76348 7.59072 5.01168 6.88506 5.47736C6.50441 5.72856 6.16808 6.03707 5.88685 6.38999L4.62062 4.19683C5.18386 3.66014 5.83695 3.22453 6.55129 2.91051C7.40571 2.5349 8.32902 2.34146 9.26236 2.34252ZM9.26307 1.71094V1.7111V1.71094ZM7.35533 15.5423C4.5642 14.7198 2.52623 12.1371 2.52623 9.07936C2.52623 8.26177 2.67153 7.47907 2.93781 6.75482L5.48726 11.171C5.90265 11.9212 6.5322 12.5307 7.29561 12.9216C7.71402 13.1359 8.16221 13.2791 8.62206 13.3481L7.35533 15.5423Z" fill="white" stroke="white" stroke-width="1.26316"/>
</svg>
