<svg width="64" height="65" viewBox="0 0 64 65" fill="none" xmlns="http://www.w3.org/2000/svg">
<path d="M34.915 44.6258C32.3539 37.1605 31.7943 29.6252 32.3727 21.9178C30.312 21.9366 28.1518 21.907 26.0023 21.6057C23.8824 21.3098 21.8056 20.804 19.5431 20.1987C20.6004 21.6326 21.4747 22.9347 22.2145 24.3174C22.5508 24.9469 22.8925 25.5738 23.2099 26.2113C23.4601 26.709 23.1857 27.2175 22.6288 27.2847C22.1069 27.3493 21.6765 27.1529 21.3133 26.7682C19.8633 25.2321 18.8652 23.4324 18.1954 21.4416C18.1254 21.2318 18.0635 21.0219 17.9936 20.8013C17.7004 20.9278 17.7246 21.2103 17.6546 21.4255C16.9525 23.6099 15.7338 25.485 14.23 27.196C13.8345 27.6479 13.3099 27.691 12.7827 27.6479C12.3872 27.6156 12.2392 27.1045 12.4625 26.6256C13.3987 24.6214 14.5017 22.7141 15.7715 20.8982C16.1266 20.3924 16.4655 19.8732 16.8314 19.3325C16.6001 19.2545 16.4333 19.2114 16.2772 19.1442C15.9302 18.9962 15.6208 18.7918 15.7392 18.3479C15.8656 17.8744 16.2396 17.826 16.6485 17.9174C17.2565 18.052 17.8618 18.2134 18.4724 18.3425C21.4935 18.9828 24.5389 19.3836 27.638 19.3459C28.1491 19.3406 28.2782 19.2464 28.1895 18.7137C28.0469 17.8394 28.3751 17.0324 28.8405 16.3114C29.4189 15.4129 30.0296 14.5278 30.7694 13.7476C31.3101 13.1773 31.6975 13.1907 32.2382 13.7342C33.0749 14.5762 33.8362 15.4828 34.5034 16.462C35.0576 17.2745 35.4154 18.1542 35.0737 19.233C36.5775 19.2572 38.0329 19.085 39.4883 18.9128C41.9041 18.6277 44.3226 18.3559 46.6012 17.4117C47.0048 17.2449 47.3007 17.4655 47.4756 17.8233C47.6692 18.2241 47.4917 18.5658 47.1204 18.6922C46.6012 18.8698 46.7357 19.0688 46.9698 19.389C48.6404 21.6568 50.112 24.0484 51.3979 26.553C51.5674 26.8839 51.8283 27.2175 51.4705 27.5807C51.1477 27.9062 50.7711 27.8013 50.4079 27.6748C49.9317 27.508 49.5605 27.1933 49.2349 26.814C47.8253 25.1675 46.7653 23.3248 46.0982 21.2614C46.0524 21.1161 46.0578 20.9466 45.8507 20.8282C45.4687 21.872 45.1378 22.9239 44.5943 23.8924C44.0563 24.8474 43.4429 25.7513 42.7677 26.6122C42.2619 27.2578 41.5571 27.4085 40.7958 27.3493C40.2766 27.309 40.1178 27.1018 40.4111 26.5638C41.6109 24.3712 42.8323 22.1922 44.3253 20.1799C44.3764 20.11 44.4087 20.0266 44.4975 19.8598C40.6693 20.8282 36.8842 21.5923 32.7763 21.8317C33.5753 22.1357 33.5241 22.6899 33.5806 23.1714C34.2693 28.9311 34.9338 34.6936 35.636 40.4533C35.8108 41.8899 36.1175 43.3103 36.3408 44.7415C36.3946 45.0912 36.5587 45.2957 36.8654 45.4382C37.5164 45.7422 38.0733 46.1969 38.6113 46.6596C38.9261 46.9286 39.2677 47.2299 39.1278 47.7357C39.1009 47.8298 39.0956 47.9186 39.187 47.9697C39.9914 48.4298 39.5825 48.9624 39.2839 49.4924C38.8185 50.3129 38.1163 50.7971 37.2151 51.0635C35.5714 51.5504 33.89 51.7279 32.1871 51.6876C30.5138 51.6499 28.8297 51.8651 27.1726 51.5343C25.9674 51.2948 24.7675 50.9908 23.9174 49.982C23.3498 49.3095 23.4117 48.6826 23.8421 47.9401C24.4312 46.9259 25.3432 46.3179 26.274 45.71C26.4973 45.562 26.6103 45.4167 26.6426 45.1369C27.0784 41.2335 27.4846 37.3273 27.9931 33.4319C28.3832 30.4484 28.9078 27.4811 29.3705 24.5058C29.4458 24.0215 29.513 23.5346 29.5668 23.045C29.6153 22.6119 29.7928 22.2998 30.269 22.3294C30.7667 22.3617 30.8366 22.7329 30.8393 23.1499C30.8581 29.2163 30.4439 35.237 29.0046 41.1554C28.7732 42.1078 28.5822 43.0709 28.3509 44.0232C28.2675 44.3675 28.2809 44.5424 28.7033 44.4106C30.729 43.7784 32.7413 43.843 34.9177 44.6177L34.915 44.6258ZM34.7966 49.3848C35.3104 49.3848 35.8243 49.4063 36.3381 49.3794C37.0564 49.3444 37.6832 49.0942 38.1405 48.5024C38.2804 48.3221 38.3692 48.2172 38.1056 48.0504C36.7793 47.203 35.3696 46.6327 33.7851 46.4498C32.171 46.2641 30.6026 46.4363 29.0127 46.6946C27.5357 46.934 26.2444 47.4747 25.1415 48.4728C24.6626 48.9059 24.6895 49.0889 25.3244 49.2476C26.0373 49.4251 26.769 49.6081 27.5088 49.5247C29.9354 49.253 32.3647 49.1722 34.7966 49.3821V49.3848ZM31.4043 15.1142C30.9792 16.0074 30.5461 16.7795 30.2905 17.6377C30.121 18.2134 30.1856 18.6895 30.6967 19.0473C31.2509 19.4347 32.1763 19.4132 32.709 19.0097C33.2444 18.6034 33.1529 18.0842 32.9484 17.5677C32.6014 16.6934 31.9853 15.9859 31.4043 15.1116V15.1142Z" fill="#18473C"/>
<path d="M12.9091 27.9389C14.3645 27.9039 15.7984 27.6779 17.2376 27.5381C19.7072 27.2986 22.1392 27.7183 24.5873 27.8716C24.98 27.8958 25.3701 28.0035 25.7602 28.0895C26.2148 28.1891 26.2444 28.5523 26.2525 28.9262C26.3144 32.106 24.8428 34.4061 22.115 35.8992C18.572 37.8388 14.0578 36.596 12.0993 33.209C11.6689 32.4665 11.4026 31.6675 11.2681 30.8201C11.2008 30.395 11.3084 30.048 11.7604 29.9296C12.2473 29.8032 12.5056 30.0749 12.6616 30.5053C14.0255 34.2824 18.0205 35.6813 21.5608 33.6583C23.0969 32.7813 24.1299 31.5491 24.5657 29.8274C24.676 29.397 24.7191 29.1602 24.0734 29.241C21.238 29.5907 18.4025 29.9861 15.5293 29.8436C14.1224 29.7736 12.7288 29.5934 11.3353 29.3889C11.182 29.3674 11.0259 29.327 10.886 29.2625C10.5821 29.1253 10.348 28.9181 10.4099 28.5442C10.4744 28.1676 10.7112 27.9497 11.1013 27.9416C11.7039 27.9308 12.3065 27.9389 12.9091 27.9389Z" fill="#18473C"/>
<path d="M46.8676 29.8512C44.6052 29.8593 42.3723 29.5445 40.1421 29.2136C39.1548 29.0683 39.0607 29.1463 39.362 30.0879C40.161 32.5817 41.9957 33.8973 44.4599 34.3815C46.9752 34.8765 49.0306 34.0452 50.564 31.9791C50.8868 31.5433 51.0267 31.0187 51.1908 30.5076C51.3145 30.131 51.5002 29.7651 51.9817 29.8646C52.4875 29.9696 52.6166 30.3273 52.5601 30.8277C52.2696 33.3996 50.1093 35.7481 47.4353 36.5337C42.8323 37.8814 38.4258 34.6263 37.6671 30.4834C37.6322 30.287 37.6268 30.0852 37.6187 29.8835C37.5461 28.0783 37.3874 28.1106 39.3969 27.9089C41.3016 27.7152 43.2278 27.6667 45.1513 27.812C47.5832 27.9976 50.0206 27.9223 52.4552 27.9331C52.813 27.9331 53.2461 27.8147 53.3241 28.3931C53.4022 28.9661 53.1977 29.2351 52.6005 29.3374C50.7012 29.6629 48.7965 29.8404 46.8703 29.8485L46.8676 29.8512Z" fill="#18473C"/>
</svg>
