<svg width="16" height="17" viewBox="0 0 16 17" fill="none" xmlns="http://www.w3.org/2000/svg">
<g clip-path="url(#clip0_88_1609)">
<path d="M12.4859 1.77441C12.0995 2.22724 11.9184 3.24158 12.3108 4.27404C12.7033 5.30649 13.3071 5.08309 13.6814 6.13366C14.1765 7.52234 13.9471 9.388 13.9471 9.388C13.9471 9.388 14.5448 11.1148 14.9614 9.27932C15.8852 5.83177 12.4859 2.62573 12.4859 1.77441Z" fill="url(#paint0_radial_88_1609)"/>
<path d="M7.75248 16.0903C11.7313 16.0903 14.9495 12.854 14.9495 8.85705C14.9495 4.86007 11.7253 1.62988 7.75248 1.62988C3.77965 1.62988 0.561532 4.86611 0.561532 8.85705C0.555494 12.854 3.77965 16.0903 7.75248 16.0903Z" fill="url(#paint1_radial_88_1609)"/>
<path d="M13.1443 13.3182C12.9873 13.4269 12.8243 13.5235 12.6552 13.6141C12.8786 13.282 13.0899 12.9439 13.2771 12.5937C13.428 12.4246 13.5729 12.2616 13.6876 12.0805C13.742 11.9899 13.8084 11.8873 13.8748 11.7605C14.2793 11.0299 14.7261 9.85257 14.7382 8.64502V8.55446C14.7382 8.25257 14.708 7.94464 14.6476 7.6488C14.6537 7.67295 14.6537 7.6971 14.6597 7.72125C14.6537 7.70314 14.6537 7.68502 14.6476 7.66691C14.6537 7.6971 14.6597 7.73332 14.6658 7.76351C14.7503 8.46389 14.6899 9.14615 14.3941 9.65332C14.388 9.65936 14.382 9.6654 14.382 9.67747C14.5329 8.91068 14.5873 8.0654 14.4182 7.22012C14.4182 7.22012 14.3518 6.80955 13.8446 5.55974C13.5548 4.84125 13.0356 4.24955 12.5827 3.82087C12.1843 3.32578 11.816 2.9937 11.6167 2.78238C11.2001 2.34163 11.025 2.00955 10.9526 1.79823C10.8922 1.76804 10.0892 0.989173 10.0288 0.958984C9.67859 1.50238 8.58576 3.19295 9.10501 4.7688C9.34048 5.48729 9.93821 6.22993 10.5661 6.64653C10.5963 6.67672 10.9405 7.05106 11.1035 7.89634C11.2726 8.77181 11.182 9.44804 10.8378 10.4563C10.4273 11.3379 9.3767 12.2133 8.39255 12.3039C6.29142 12.4971 5.51859 11.2473 5.51859 11.2473C6.26727 11.5492 7.10048 11.4828 7.60765 11.1748C8.11482 10.8609 8.42274 10.6254 8.67633 10.716C8.92387 10.8065 9.11708 10.5409 8.94199 10.2631C8.66425 9.83446 8.15708 9.6171 7.65595 9.70162C7.14878 9.78615 6.67784 10.1907 6.01369 9.79823C5.97142 9.77408 5.92916 9.74389 5.88689 9.7137C5.84463 9.68351 6.0318 9.75597 5.9835 9.72578C5.8567 9.65332 5.62123 9.50238 5.56689 9.44804C5.55482 9.43596 5.66953 9.48427 5.65746 9.47219C5.03557 8.95898 5.11406 8.6088 5.13218 8.39144C5.15029 8.21634 5.25897 7.99295 5.45218 7.90238C5.54274 7.95068 5.60312 7.99295 5.60312 7.99295C5.60312 7.99295 5.56086 7.91446 5.54274 7.87219C5.54878 7.86615 5.55482 7.87219 5.56689 7.86615C5.64538 7.90238 5.8084 7.99898 5.89897 8.05332C6.01369 8.13181 6.04991 8.20427 6.04991 8.20427C6.04991 8.20427 6.0801 8.18615 6.05595 8.11974C6.04991 8.08955 6.01369 7.99898 5.89897 7.90842H5.90501C5.97142 7.94464 6.03784 7.99295 6.09821 8.04125C6.1284 7.92653 6.18878 7.80578 6.1767 7.58842C6.17067 7.43747 6.17067 7.39521 6.14652 7.33483C6.12236 7.28653 6.15859 7.26238 6.20085 7.31672C6.19482 7.27446 6.18274 7.23219 6.16463 7.19597V7.18993C6.21897 7.0088 7.26953 6.53181 7.34802 6.47747C7.47482 6.38691 7.57746 6.27219 7.65595 6.13936C7.71633 6.0488 7.75859 5.91597 7.77067 5.71672C7.7767 5.57181 7.71029 5.47521 6.64161 5.36653C6.3518 5.33634 6.1767 5.12502 6.0801 4.93181C6.06199 4.88955 6.04387 4.85332 6.02576 4.81106C6.00765 4.7688 5.99557 4.72049 5.9835 4.67219C6.15859 4.17106 6.4484 3.74842 6.88312 3.42842C6.90727 3.40427 6.78652 3.43446 6.81067 3.41031C6.84086 3.38615 7.01595 3.3137 7.05218 3.29559C7.09444 3.27747 6.87708 3.18087 6.68387 3.20502C6.49067 3.22917 6.4484 3.25332 6.33972 3.29559C6.38199 3.25332 6.52085 3.19295 6.49067 3.19898C6.27935 3.22917 6.01972 3.35597 5.79633 3.49483C5.79633 3.47068 5.80236 3.44653 5.8084 3.42238C5.70576 3.46464 5.44614 3.64578 5.37369 3.79672C5.37972 3.76653 5.37972 3.73634 5.37972 3.70615C5.30123 3.77257 5.22878 3.84502 5.1684 3.92955L5.13218 3.94163C4.5284 3.70012 3.99104 3.682 3.54425 3.79068C3.44765 3.69408 3.39935 3.76653 3.16991 3.27144C3.1518 3.24125 3.18199 3.30163 3.16991 3.27144C3.13369 3.17483 3.19406 3.39823 3.16991 3.27144C2.79557 3.57332 2.30048 3.91144 2.05897 4.14691C2.05897 4.15898 2.3367 4.06842 2.05897 4.14691C1.96236 4.1771 1.9684 4.23144 1.95633 4.75672C1.95029 4.79898 1.95633 4.84125 1.95029 4.87747C1.75708 5.11898 1.63029 5.32427 1.58199 5.43295C1.33444 5.85559 1.06274 6.51974 0.803119 7.56427C0.917836 7.28049 1.0567 7.0088 1.21972 6.74917C1.00236 7.30464 0.791043 8.18012 0.748779 9.52049C0.803119 9.24276 0.869534 8.97106 0.954062 8.69936C0.899723 9.81634 1.09293 10.9273 1.51557 11.9597C1.66652 12.328 1.91406 12.8895 2.34274 13.5054C3.68312 14.9122 5.56689 15.7877 7.65595 15.7877C9.83557 15.7877 11.7978 14.8337 13.1443 13.3182Z" fill="url(#paint2_linear_88_1609)"/>
<path d="M11.5261 14.3384C14.1646 14.0305 15.3359 11.3135 13.8326 11.2592C12.4801 11.2169 10.2763 14.4833 11.5261 14.3384Z" fill="url(#paint3_radial_88_1609)"/>
<path d="M14.0257 10.7041C15.843 9.6475 15.3661 7.36523 15.3661 7.36523C15.3661 7.36523 14.6657 8.18033 14.1887 9.47844C13.7238 10.7645 12.9328 11.3441 14.0257 10.7041Z" fill="url(#paint4_radial_88_1609)"/>
<path d="M8.25965 15.6916C10.7955 16.5007 12.9691 14.5022 11.6287 13.838C10.4091 13.2403 7.05814 15.3112 8.25965 15.6916Z" fill="url(#paint5_radial_88_1609)"/>
<path d="M14.2189 11.6761C14.2793 11.5916 14.3638 11.3138 14.4363 11.1871C14.8831 10.4625 14.8891 9.88894 14.8891 9.87687C15.1608 8.53045 15.1367 7.97498 14.9676 6.96064C14.8348 6.13951 14.2491 4.96215 13.742 4.40064C13.2227 3.81498 13.585 4.00819 13.0838 3.57951C12.6431 3.09045 12.2084 2.6014 11.9789 2.40819C10.2884 0.995357 10.3246 0.693471 10.3608 0.645169L10.3367 0.66932C10.3186 0.590829 10.3004 0.524414 10.3004 0.524414C10.3004 0.524414 9.37063 1.44215 9.17742 2.98177C9.05063 3.98404 9.42497 5.0346 9.97441 5.70479C10.2582 6.05498 10.5782 6.36894 10.9284 6.64668C11.3389 7.23838 11.5684 7.96894 11.5684 8.75385C11.5684 10.7221 9.97441 12.3101 8.0061 12.3101C7.74044 12.3101 7.46875 12.2799 7.20912 12.2195C6.27931 12.0444 5.74799 11.5735 5.47629 11.2535C5.32535 11.0723 5.25893 10.9395 5.25893 10.9395C6.09214 11.2354 7.00988 11.175 7.57139 10.8671C8.1329 10.5531 8.47705 10.3237 8.75478 10.4142C9.02648 10.5048 9.24384 10.2391 9.05063 9.96743C8.85742 9.69574 8.36233 9.30328 7.62573 9.41196C7.06422 9.49649 6.54497 9.89498 5.80837 9.50856C5.76007 9.48441 5.71176 9.45423 5.6695 9.43007C5.6212 9.39989 5.82648 9.47234 5.77818 9.44215C5.63327 9.3697 5.37969 9.21875 5.31327 9.16441C5.3012 9.15234 5.42195 9.20064 5.41592 9.18857C4.72761 8.6814 4.81214 8.33724 4.83025 8.11989C4.84837 7.94479 4.97516 7.72743 5.18648 7.63687C5.28912 7.68517 5.3495 7.72743 5.3495 7.72743C5.3495 7.72743 5.30724 7.64894 5.28308 7.60668C5.28912 7.60064 5.3012 7.60668 5.30724 7.60064C5.39176 7.63687 5.57893 7.72743 5.67554 7.78781C5.80233 7.8663 5.84459 7.93875 5.84459 7.93875C5.84459 7.93875 5.88082 7.92064 5.85063 7.85423C5.83856 7.82404 5.80233 7.73347 5.67554 7.6429H5.68158C5.75403 7.67913 5.82648 7.72743 5.8929 7.77573C5.92912 7.66102 5.9895 7.54026 5.97742 7.3229C5.97139 7.17196 5.97139 7.1297 5.9412 7.07536C5.91705 7.02706 5.95327 7.0029 6.00158 7.05724C5.99554 7.01498 5.97742 6.97875 5.95931 6.93649V6.93045C6.01969 6.74932 7.18497 6.27838 7.2695 6.22404C7.40837 6.13951 7.52308 6.02479 7.61365 5.89196C7.68007 5.8014 7.72837 5.66857 7.74044 5.46932C7.74648 5.37875 7.71629 5.31234 7.40837 5.23989C7.2212 5.19762 6.93742 5.1614 6.49063 5.11913C6.17063 5.08894 5.97742 4.88366 5.86874 4.69045C5.85063 4.64819 5.82648 4.61196 5.80837 4.57573C5.79025 4.53347 5.77214 4.48517 5.76007 4.4429C5.95327 3.93573 6.30346 3.50706 6.75629 3.21121C6.78044 3.18706 6.65365 3.21724 6.6778 3.19309C6.70799 3.16894 6.90724 3.09649 6.94346 3.07838C6.99176 3.06026 6.75025 2.9697 6.5329 2.98781C6.31554 3.01196 6.27327 3.03007 6.15252 3.07838C6.20082 3.03611 6.35176 2.98177 6.31554 2.98177C6.09818 3.00592 5.80837 3.12668 5.56082 3.26555C5.56082 3.24139 5.56686 3.21724 5.5729 3.19309C5.45818 3.23536 5.17441 3.41649 5.08988 3.56743C5.09592 3.53724 5.09592 3.50706 5.09592 3.4829C5.01139 3.54932 4.92686 3.62177 4.86044 3.7063L4.85441 3.71234C4.18422 3.47083 3.59252 3.45272 3.09742 3.5614C2.98875 3.46479 2.81365 3.31385 2.5661 2.82479C2.54799 2.7946 2.54195 2.88517 2.52988 2.85498C2.43327 2.63158 2.3729 2.26328 2.38497 2.0097C2.38497 2.0097 2.18573 2.10026 2.02271 2.48064C1.99252 2.54706 1.97441 2.58932 1.95025 2.62555C1.93818 2.63762 1.96837 2.49875 1.96837 2.51083C1.93818 2.55913 1.86573 2.62555 1.83554 2.71611C1.81139 2.78253 1.7812 2.81875 1.76308 2.89724L1.75705 2.90328C1.75705 2.87913 1.76308 2.80668 1.75705 2.81875C1.67856 2.97573 1.61214 3.13875 1.5578 3.30177C1.46724 3.59158 1.36459 3.99007 1.34648 4.50932C1.34044 4.54555 1.34648 4.59385 1.34044 4.63007C1.12912 4.87158 0.984217 5.07687 0.929877 5.17951C0.658179 5.60215 0.356292 6.25423 0.0664809 7.29272C0.193273 7.00894 0.350254 6.73724 0.531387 6.48366C0.289877 7.03309 0.0544054 7.90253 0.00610352 9.23083C0.0664809 8.95309 0.138934 8.6814 0.2295 8.41574C0.187236 9.30328 0.289877 10.4082 0.851387 11.652C1.18346 12.3825 1.95025 13.8678 3.82799 15.0271C3.82799 15.0271 4.46799 15.504 5.56082 15.8603C5.63931 15.8905 5.72384 15.9206 5.80837 15.9448C5.78422 15.9327 5.75403 15.9206 5.72988 15.9146C6.46044 16.132 7.21516 16.2467 7.98195 16.2467C10.8197 16.2467 11.6589 15.1055 11.6589 15.1055L11.6529 15.1116C11.6952 15.0754 11.7314 15.0331 11.7676 14.9969C11.3208 15.4195 10.2944 15.4497 9.91403 15.4195C10.5661 15.2263 10.9948 15.0633 11.828 14.7493C11.9246 14.7131 12.0272 14.6708 12.1299 14.6225L12.1601 14.6044C12.1782 14.5923 12.2023 14.5863 12.2204 14.5742C12.625 14.381 13.0114 14.1455 13.3616 13.8618C14.2008 13.1916 14.382 12.5395 14.4786 12.1108C14.4665 12.1531 14.4242 12.2497 14.394 12.3101C14.1767 12.7689 13.6997 13.0588 13.1804 13.3003C13.428 12.9742 13.6574 12.6361 13.8687 12.2859C14.0378 12.1169 14.0861 11.8512 14.2189 11.6761Z" fill="url(#paint6_radial_88_1609)"/>
<path d="M13.1984 13.2762C13.5425 12.9019 13.8444 12.4672 14.0799 11.9781C14.6776 10.7223 15.6014 8.62718 14.8769 6.44755C14.3033 4.72076 13.5123 3.77887 12.5101 2.8551C10.8799 1.35774 10.4271 0.687553 10.4271 0.289062C10.4271 0.289062 8.54329 2.38416 9.35838 4.57585C10.1735 6.76755 11.8459 6.68302 12.9508 8.96529C14.255 11.6521 11.9003 14.5864 9.95008 15.4076C10.0708 15.3834 14.2791 14.4294 14.5025 12.0204C14.4905 12.0626 14.3939 12.7328 13.1984 13.2762Z" fill="url(#paint7_radial_88_1609)"/>
<path d="M7.74032 5.46898C7.74635 5.32407 7.6739 5.2335 6.49654 5.11879C6.01352 5.07652 5.82635 4.62973 5.77201 4.43652C5.60296 4.88332 5.5305 5.35426 5.56673 5.92181C5.59088 6.29615 5.84447 6.69464 5.95918 6.92407C5.95918 6.92407 5.98333 6.88784 5.99541 6.87577C6.21881 6.6403 7.16069 6.28407 7.25126 6.23577C7.3539 6.17539 7.72824 5.90369 7.74032 5.46898Z" fill="url(#paint8_linear_88_1609)"/>
<path d="M2.56604 2.82486C2.54793 2.79467 2.54189 2.88524 2.52982 2.85505C2.43321 2.63165 2.37284 2.26939 2.39095 2.00977C2.39095 2.00977 2.1917 2.10033 2.02868 2.48071C1.9985 2.54712 1.98038 2.58939 1.95623 2.62561C1.94416 2.63769 1.97435 2.49882 1.97435 2.5109C1.94416 2.5592 1.8717 2.62561 1.84151 2.71014C1.81736 2.77656 1.78718 2.81882 1.76906 2.90335C1.76302 2.9275 1.7751 2.80071 1.76906 2.81882C1.38265 3.56146 1.31019 4.68448 1.35246 4.63618C2.17359 3.76071 3.10944 3.55543 3.10944 3.55543C2.99472 3.48297 2.77736 3.26561 2.56604 2.82486Z" fill="url(#paint9_linear_88_1609)"/>
<path d="M5.66938 11.9656C4.54033 11.4826 3.25429 10.8004 3.30259 9.25471C3.369 7.21999 5.20448 7.61848 5.20448 7.61848C5.13806 7.63659 4.95089 7.76942 4.88448 7.90829C4.81806 8.08339 4.69127 8.48188 5.07165 8.89848C5.67542 9.55056 3.83391 10.4441 6.67165 12.1347C6.7441 12.1709 6.0075 12.1106 5.66938 11.9656Z" fill="url(#paint10_linear_88_1609)"/>
<path d="M5.27093 10.952C6.07395 11.2297 7.00376 11.1814 7.56527 10.8735C7.93961 10.6622 8.42263 10.3301 8.71244 10.4146C8.45886 10.312 8.26565 10.2637 8.03018 10.2577C7.98791 10.2577 7.94565 10.2577 7.90338 10.2516C7.81886 10.2516 7.73433 10.2577 7.6498 10.2637C7.50489 10.2758 7.34791 10.3663 7.20301 10.3543C7.19697 10.3543 7.34188 10.2939 7.3298 10.2939C7.25131 10.312 7.16678 10.312 7.08225 10.3241C7.02791 10.3301 6.97961 10.3361 6.91923 10.3422C5.24678 10.4811 3.83999 9.43652 3.83999 9.43652C3.71923 9.83501 4.37735 10.638 5.27093 10.952Z" fill="url(#paint11_linear_88_1609)"/>
<path d="M13.1926 13.288C14.8831 11.6276 15.7344 9.61705 15.3722 7.3529C15.3722 7.3529 15.5171 8.51214 14.9676 9.69554C15.2333 8.53629 15.2635 7.09931 14.5631 5.60799C13.6333 3.62158 12.0997 2.57101 11.5141 2.13629C10.6265 1.47214 10.2582 0.801954 10.2522 0.663086C9.98652 1.20648 9.1835 3.0661 10.1676 4.6661C11.0854 6.1695 12.5344 6.61026 13.5427 7.98686C15.4144 10.5287 13.1926 13.288 13.1926 13.288Z" fill="url(#paint12_linear_88_1609)"/>
<path d="M12.9509 8.97101C12.3592 7.75139 11.6226 7.22007 10.9283 6.64648C11.0068 6.7612 11.0309 6.79743 11.0732 6.87592C11.689 7.52799 12.5886 9.12196 11.9366 11.1265C10.6988 14.894 5.75997 13.1189 5.24072 12.6238C5.45204 14.8035 9.09884 15.848 11.4777 14.4352C12.8241 13.1431 13.9169 10.9695 12.9509 8.97101Z" fill="url(#paint13_linear_88_1609)"/>
</g>
<defs>
<radialGradient id="paint0_radial_88_1609" cx="0" cy="0" r="1" gradientUnits="userSpaceOnUse" gradientTransform="translate(15.1692 5.21793) rotate(2.2603) scale(5.56012 8.19529)">
<stop offset="0.1" stop-color="#FFEA00"/>
<stop offset="0.17" stop-color="#FFDE00"/>
<stop offset="0.28" stop-color="#FFBF00"/>
<stop offset="0.43" stop-color="#FF8E00"/>
<stop offset="0.77" stop-color="#FF272D"/>
<stop offset="0.87" stop-color="#E0255A"/>
<stop offset="0.95" stop-color="#CC2477"/>
<stop offset="1" stop-color="#C42482"/>
</radialGradient>
<radialGradient id="paint1_radial_88_1609" cx="0" cy="0" r="1" gradientUnits="userSpaceOnUse" gradientTransform="translate(10.1198 2.75748) scale(15.7789 15.7789)">
<stop stop-color="#00CCDA"/>
<stop offset="0.22" stop-color="#0083FF"/>
<stop offset="0.26" stop-color="#007AF9"/>
<stop offset="0.33" stop-color="#005FE7"/>
<stop offset="0.44" stop-color="#2639AD"/>
<stop offset="0.52" stop-color="#401E84"/>
<stop offset="0.57" stop-color="#4A1475"/>
</radialGradient>
<linearGradient id="paint2_linear_88_1609" x1="8.76949" y1="12.1098" x2="5.66573" y2="1.95696" gradientUnits="userSpaceOnUse">
<stop stop-color="#000F43" stop-opacity="0.4"/>
<stop offset="0.48" stop-color="#001962" stop-opacity="0.17"/>
<stop offset="1" stop-color="#002079" stop-opacity="0"/>
</linearGradient>
<radialGradient id="paint3_radial_88_1609" cx="0" cy="0" r="1" gradientUnits="userSpaceOnUse" gradientTransform="translate(15.6563 10.904) rotate(5.61742) scale(5.30432)">
<stop stop-color="#FFEA00"/>
<stop offset="0.5" stop-color="#FF272D"/>
<stop offset="1" stop-color="#C42482"/>
</radialGradient>
<radialGradient id="paint4_radial_88_1609" cx="0" cy="0" r="1" gradientUnits="userSpaceOnUse" gradientTransform="translate(15.6764 5.79573) rotate(5.61742) scale(8.85768 8.85768)">
<stop stop-color="#FFE900"/>
<stop offset="0.16" stop-color="#FFAF0E"/>
<stop offset="0.32" stop-color="#FF7A1B"/>
<stop offset="0.47" stop-color="#FF4E26"/>
<stop offset="0.62" stop-color="#FF2C2E"/>
<stop offset="0.76" stop-color="#FF1434"/>
<stop offset="0.89" stop-color="#FF0538"/>
<stop offset="1" stop-color="#FF0039"/>
</radialGradient>
<radialGradient id="paint5_radial_88_1609" cx="0" cy="0" r="1" gradientUnits="userSpaceOnUse" gradientTransform="translate(16.1196 14.0902) rotate(5.61743) scale(8.12787 8.12787)">
<stop stop-color="#FF272D"/>
<stop offset="0.5" stop-color="#C42482"/>
<stop offset="0.99" stop-color="#620700"/>
</radialGradient>
<radialGradient id="paint6_radial_88_1609" cx="0" cy="0" r="1" gradientUnits="userSpaceOnUse" gradientTransform="translate(11.5954 6.67723) scale(12.6814)">
<stop offset="0.16" stop-color="#FFEA00"/>
<stop offset="0.23" stop-color="#FFDE00"/>
<stop offset="0.37" stop-color="#FFBF00"/>
<stop offset="0.54" stop-color="#FF8E00"/>
<stop offset="0.76" stop-color="#FF272D"/>
<stop offset="0.8" stop-color="#F92433"/>
<stop offset="0.84" stop-color="#E91C45"/>
<stop offset="0.89" stop-color="#CF0E62"/>
<stop offset="0.94" stop-color="#B5007F"/>
</radialGradient>
<radialGradient id="paint7_radial_88_1609" cx="0" cy="0" r="1" gradientUnits="userSpaceOnUse" gradientTransform="translate(10.8681 0.796105) scale(14.453)">
<stop offset="0.28" stop-color="#FFEA00"/>
<stop offset="0.4" stop-color="#FFDD00"/>
<stop offset="0.63" stop-color="#FFBA00"/>
<stop offset="0.86" stop-color="#FF9100"/>
<stop offset="0.93" stop-color="#FF6711"/>
<stop offset="0.99" stop-color="#FF4A1D"/>
</radialGradient>
<linearGradient id="paint8_linear_88_1609" x1="2.40873" y1="6.20823" x2="8.63392" y2="5.25759" gradientUnits="userSpaceOnUse">
<stop stop-color="#C42482" stop-opacity="0.5"/>
<stop offset="0.47" stop-color="#FF272D" stop-opacity="0.5"/>
<stop offset="0.49" stop-color="#FF2C2C" stop-opacity="0.51"/>
<stop offset="0.68" stop-color="#FF7A1A" stop-opacity="0.72"/>
<stop offset="0.83" stop-color="#FFB20D" stop-opacity="0.87"/>
<stop offset="0.94" stop-color="#FFD605" stop-opacity="0.96"/>
<stop offset="1" stop-color="#FFE302"/>
</linearGradient>
<linearGradient id="paint9_linear_88_1609" x1="2.36192" y1="4.57617" x2="1.71279" y2="2.24302" gradientUnits="userSpaceOnUse">
<stop stop-color="#891551" stop-opacity="0.6"/>
<stop offset="1" stop-color="#C42482" stop-opacity="0"/>
</linearGradient>
<linearGradient id="paint10_linear_88_1609" x1="3.54688" y1="7.85439" x2="4.88408" y2="9.72247" gradientUnits="userSpaceOnUse">
<stop offset="0.01" stop-color="#891551" stop-opacity="0.5"/>
<stop offset="0.48" stop-color="#FF272D" stop-opacity="0.5"/>
<stop offset="1" stop-color="#FF272D" stop-opacity="0"/>
</linearGradient>
<linearGradient id="paint11_linear_88_1609" x1="6.15275" y1="11.1073" x2="6.27513" y2="9.90708" gradientUnits="userSpaceOnUse">
<stop stop-color="#C42482"/>
<stop offset="0.08" stop-color="#C42482" stop-opacity="0.81"/>
<stop offset="0.21" stop-color="#C42482" stop-opacity="0.57"/>
<stop offset="0.33" stop-color="#C42482" stop-opacity="0.36"/>
<stop offset="0.45" stop-color="#C42482" stop-opacity="0.2"/>
<stop offset="0.56" stop-color="#C42482" stop-opacity="0.09"/>
<stop offset="0.67" stop-color="#C42482" stop-opacity="0.02"/>
<stop offset="0.77" stop-color="#C42482" stop-opacity="0"/>
</linearGradient>
<linearGradient id="paint12_linear_88_1609" x1="10.0584" y1="0.875252" x2="15.014" y2="11.9564" gradientUnits="userSpaceOnUse">
<stop stop-color="#FFF14F"/>
<stop offset="0.27" stop-color="#FFEE4C"/>
<stop offset="0.45" stop-color="#FFE643"/>
<stop offset="0.61" stop-color="#FFD834"/>
<stop offset="0.76" stop-color="#FFC41E"/>
<stop offset="0.89" stop-color="#FFAB02"/>
<stop offset="0.9" stop-color="#FFA900"/>
<stop offset="0.95" stop-color="#FFA000"/>
<stop offset="1" stop-color="#FF9100"/>
</linearGradient>
<linearGradient id="paint13_linear_88_1609" x1="11.0423" y1="7.24869" x2="8.69497" y2="13.5514" gradientUnits="userSpaceOnUse">
<stop stop-color="#FF8E00"/>
<stop offset="0.04" stop-color="#FF8E00" stop-opacity="0.86"/>
<stop offset="0.08" stop-color="#FF8E00" stop-opacity="0.73"/>
<stop offset="0.13" stop-color="#FF8E00" stop-opacity="0.63"/>
<stop offset="0.18" stop-color="#FF8E00" stop-opacity="0.56"/>
<stop offset="0.23" stop-color="#FF8E00" stop-opacity="0.51"/>
<stop offset="0.28" stop-color="#FF8E00" stop-opacity="0.5"/>
<stop offset="0.39" stop-color="#FF8E00" stop-opacity="0.48"/>
<stop offset="0.52" stop-color="#FF8E00" stop-opacity="0.42"/>
<stop offset="0.68" stop-color="#FF8E00" stop-opacity="0.31"/>
<stop offset="0.84" stop-color="#FF8E00" stop-opacity="0.17"/>
<stop offset="1" stop-color="#FF8E00" stop-opacity="0"/>
</linearGradient>
<clipPath id="clip0_88_1609">
<rect width="15.4566" height="16" fill="white" transform="translate(0 0.289062)"/>
</clipPath>
</defs>
</svg>
