<svg width="64" height="65" viewBox="0 0 64 65" fill="none" xmlns="http://www.w3.org/2000/svg">
<g clip-path="url(#clip0_91_1590)">
<path d="M29.1797 32.1085C35.0319 32.0361 40.8864 31.7438 46.7241 32.4274C47.9365 32.5699 49.1345 32.8162 50.2624 33.321C50.7334 33.5311 51.1005 33.8234 51.0715 34.391C50.8831 37.9873 50.2358 41.4652 48.364 44.6171C47.1153 46.7208 45.217 48.0299 43.065 49.0684C39.0484 51.0054 34.8217 51.858 30.3777 51.7034C24.0328 51.4837 19.4439 48.4694 16.4997 42.9119C15.4418 40.9121 14.5892 38.8157 14.1835 36.5671C14.012 35.6155 13.983 34.6542 14.0096 33.6905C14.0096 33.6302 14.0023 33.5625 14.0289 33.5118C14.082 33.4079 14.1738 33.2196 14.2124 33.2292C14.9274 33.3935 14.7535 32.3766 15.5312 32.3766C19.8013 32.3766 24.0715 32.2438 28.3416 32.1544C28.6218 32.1496 28.902 32.123 29.1821 32.1061L29.1797 32.1085ZM37.8432 49.0249C38.7707 48.9211 39.6015 48.5105 40.4468 48.1699C43.4273 46.972 45.8956 45.134 47.4921 42.2816C48.7094 40.1103 49.2456 37.7771 48.9533 35.2894C48.8543 34.4417 48.7191 34.3644 47.8641 34.2388C46.3739 34.0214 44.8716 33.9441 43.3717 33.8886C37.4012 33.6712 31.4283 33.6495 25.4554 33.5577H25.3105L24.8782 33.5529L24.54 33.548C21.434 33.5142 18.3304 33.4828 15.2244 33.4393C15.0554 33.4393 14.9588 33.42 14.9757 33.6277C15.0578 34.6035 14.9225 35.5889 15.1858 36.555C15.5505 37.8882 16.0166 39.1876 16.5311 40.4653C18.4609 45.262 21.9122 48.3825 26.9311 49.6843C29.7763 50.4234 32.648 50.2591 35.5053 49.6843C36.1018 49.5659 36.7274 49.5321 37.2515 49.165C37.4713 49.2133 37.6427 49.0684 37.8408 49.0225L37.8432 49.0249Z" fill="#18473C"/>
<path d="M43.9201 29.2323C43.9201 28.7709 44.0529 28.2517 43.8839 27.8652C43.7051 27.4546 43.0989 27.5923 42.6932 27.4377C40.162 26.4837 38.5848 23.7641 39.092 21.0011C39.5509 18.5086 40.6571 16.3059 42.3526 14.4075C43.2004 13.4583 44.164 13.1008 45.461 13.4607C47.3353 13.98 48.5815 15.1562 49.3351 16.8662C50.5548 19.6268 50.6804 22.414 49.2264 25.1432C48.5767 26.3654 47.5406 27.1672 46.1928 27.5198C45.8644 27.6044 45.8088 27.7879 45.7895 28.0729C45.7267 29.0342 45.6059 29.9858 45.3089 30.9084C45.1954 31.2611 45.048 31.6692 44.6326 31.6499C44.2123 31.6306 44.0505 31.2393 43.9418 30.8456C43.7921 30.3046 43.9056 29.7684 43.9153 29.2298L43.9201 29.2323ZM43.9515 25.7736C44.0167 25.1577 44.0457 24.5346 44.1568 23.926C44.222 23.5733 44.1326 23.3946 43.8549 23.1845C42.8115 22.3899 42.1618 21.3368 41.901 20.0471C41.8502 19.7959 41.814 19.5689 42.0893 19.4264C42.355 19.2887 42.6086 19.3177 42.8018 19.5326C43.0144 19.7693 43.2028 20.0302 43.3718 20.3007C43.7051 20.8272 44.1495 21.233 44.6761 21.6218C45.1084 20.8006 45.5214 20.0253 45.9272 19.2452C46.1252 18.8636 46.4223 18.6293 46.845 18.7767C47.2676 18.924 47.1928 19.3322 47.1251 19.6558C46.8377 21.0132 46.4392 22.3319 45.5166 23.4212C45.4562 23.4936 45.3282 23.5516 45.3813 23.6627C45.647 24.2134 45.4876 24.8124 45.5915 25.3824C45.6422 25.6625 45.7074 25.7567 46.0093 25.6287C46.7628 25.3099 47.3087 24.7737 47.7096 24.083C49.1781 21.5639 48.7385 17.6705 46.7508 15.5499C45.6301 14.3543 43.6907 14.4582 42.7052 15.7721C42.2826 16.3373 42.0072 16.9797 41.7415 17.6294C41.2392 18.8564 40.8382 20.1292 40.6619 21.4286C40.4083 23.298 41.8092 25.4572 43.9515 25.7736Z" fill="#18473C"/>
<path d="M21.7893 23.7136C22.5356 23.7112 23.2239 23.9334 23.8108 24.3706C24.1441 24.6193 24.2794 24.5638 24.4944 24.2498C25.5112 22.7572 26.5908 21.3129 27.9433 20.0956C28.4215 19.6657 28.9457 19.2937 29.4939 18.9628C30.2982 18.4774 31.3029 18.7285 31.9116 19.6053C32.6072 20.6076 33.083 21.7452 33.7713 22.7572C35.0804 24.6773 36.102 26.7761 37.4135 28.6939C37.6526 29.0441 37.8024 29.4377 37.9062 29.8483C37.9811 30.1454 37.8603 30.3773 37.5874 30.4811C37.3531 30.5705 37.0633 30.556 36.9522 30.3C36.2904 28.7905 34.9886 27.7326 34.1698 26.3293C33.0612 24.4285 31.5517 22.7837 30.588 20.7863C30.4069 20.4096 30.1629 20.5955 29.948 20.7332C28.8273 21.4457 27.8032 22.2838 26.8661 23.2185C26.301 23.7837 25.8034 24.4189 25.2455 24.9913C24.9412 25.3053 24.9822 25.542 25.2286 25.8584C26.115 27.0056 26.755 28.2978 27.3806 29.5972C27.4844 29.8121 27.5472 30.0464 27.6293 30.271C27.7525 30.6091 27.7477 30.9352 27.3757 31.0849C26.9941 31.2371 26.7164 31.0294 26.5521 30.6816C26.1464 29.8266 25.6054 29.0561 25.0861 28.2736C24.6417 27.6046 24.1514 26.9718 23.5693 26.4139C22.4462 25.3415 21.3883 25.2859 20.2121 26.2859C18.7557 27.5273 17.6858 29.0634 16.8863 30.7951C16.8187 30.94 16.7414 31.0801 16.6786 31.2274C16.553 31.5149 16.3719 31.7081 16.0289 31.5777C15.6763 31.4448 15.5942 31.1622 15.7101 30.8458C15.9347 30.2251 16.1545 29.5996 16.4395 29.0054C17.2414 27.3365 18.1761 25.7521 19.5817 24.5034C20.2049 23.9479 20.9657 23.7257 21.7917 23.7136H21.7893Z" fill="#18473C"/>
<path d="M24.8806 33.556C25.069 33.7661 25.1004 34.0197 25.0762 34.2854C25.0473 34.5849 25.011 34.8844 24.9893 35.1839C24.9193 36.1162 25.0738 36.2949 25.9989 36.307C27.2186 36.3239 28.4431 36.1693 29.658 36.406C30.2883 36.5292 30.9115 36.6669 31.4815 36.9857C32.7567 37.7006 33.3557 38.8454 33.1214 40.2994C32.8123 42.2219 31.9838 43.8619 30.2425 44.8666C29.6097 45.2313 28.8706 45.3931 28.1291 45.0309C27.2669 44.6106 26.3998 44.2073 25.6003 43.6662C24.912 43.2025 24.4748 43.3692 24.1705 44.1662C23.9701 44.6903 23.8034 45.2265 23.6271 45.7578C23.487 46.1805 23.2962 46.5766 23.0305 46.9317C22.789 47.2553 22.4678 47.4026 22.0886 47.1756C21.736 46.9655 21.5838 46.6322 21.7577 46.2481C22.2625 45.1371 22.7479 44.0092 23.3324 42.9393C23.8251 42.036 24.6415 41.7727 25.6535 42.0239C26.5206 42.2388 27.2693 42.7195 28.0615 43.1011C28.9189 43.5117 29.3464 43.4513 29.9889 42.7678C30.6941 42.0166 31.1168 41.1133 31.3027 40.1086C31.4428 39.355 31.211 38.8913 30.5444 38.4976C29.6314 37.9566 28.6073 37.889 27.5857 37.8479C26.7065 37.8117 25.8201 37.8479 24.9555 37.633C24.1512 37.4349 23.8348 37.0847 23.7648 36.2635C23.7165 35.6839 23.7285 35.109 23.8565 34.5318C23.9556 34.0898 24.1319 33.7492 24.5425 33.5439C24.656 33.5439 24.7695 33.5464 24.883 33.5488L24.8806 33.556Z" fill="#18473C"/>
<path d="M37.2539 49.1703C36.481 48.0279 35.9086 46.7768 35.7251 45.4218C35.5005 43.7674 35.8458 42.2337 37.2249 41.0865C37.9954 40.4464 38.848 40.1324 39.8382 40.3667C40.2223 40.4585 40.3575 40.3281 40.4952 39.9923C40.9154 38.9659 41.4806 38.0191 42.1979 37.1738C43.7123 35.3889 46.6806 35.3792 48.2119 37.1472C48.3544 37.3114 48.4824 37.4998 48.5669 37.6979C48.7094 38.0384 48.6829 38.391 48.3665 38.6205C48.0477 38.8523 47.8037 38.6036 47.5815 38.4007C47.183 38.036 46.7917 37.6737 46.258 37.4877C44.9972 37.0457 44.1108 37.3332 43.3669 38.4635C42.8694 39.2219 42.5602 40.0745 42.1472 40.8739C41.5289 42.067 41.2584 42.2458 39.9228 42.0695C38.6741 41.9052 37.1163 42.9897 37.2563 44.5958C37.3699 45.9121 37.3095 47.2381 37.9954 48.436C38.1427 48.6921 37.9495 48.8442 37.8432 49.0278C37.6476 49.0737 37.4737 49.2186 37.2539 49.1703Z" fill="#18473C"/>
<path d="M25.4579 33.5635C25.4096 33.6214 25.3613 33.6263 25.3105 33.5659H25.4579V33.5635Z" fill="#18473C"/>
</g>
<defs>
<clipPath id="clip0_91_1590">
<rect width="37.074" height="38.4" fill="white" transform="translate(14 13.3232)"/>
</clipPath>
</defs>
</svg>
