<svg width="64" height="65" viewBox="0 0 64 65" fill="none" xmlns="http://www.w3.org/2000/svg">
<g clip-path="url(#clip0_91_1592)">
<path d="M44.7191 15.7692C44.5841 15.9812 44.4251 16.1667 44.3408 16.3812C43.4879 18.5014 41.7218 19.7205 39.8691 20.8119C37.4597 22.231 34.7757 22.8695 32.0508 23.3586C29.6535 23.7899 27.2369 24.1031 24.8613 24.6717C20.6594 25.6764 17.8333 28.211 16.2696 32.2009C15.1782 34.9885 15.3613 37.7134 16.7081 40.3733C16.8575 40.6673 16.9563 40.9564 16.6431 41.1732C16.3323 41.3877 16.0287 41.26 15.7805 41.0142C15.3348 40.5733 15.1661 39.983 15.0144 39.4096C13.6073 34.0922 14.9782 29.5747 19.0307 25.8932C20.5366 24.5271 22.4062 23.7899 24.3433 23.2237C27.3791 22.337 30.5329 21.9949 33.5879 21.1998C36.3466 20.4843 38.927 19.4217 41.0737 17.4726C41.7508 16.8582 42.3049 16.174 42.6904 15.3427C42.8831 14.9283 43.1144 14.5236 43.3867 14.1573C44.242 13.0081 45.5238 13.0322 46.1912 14.2923C47.0296 15.8752 47.8922 17.4581 48.2921 19.2362C48.88 21.8552 49.0077 24.5006 48.8125 27.1678C48.6366 29.5843 48.3234 31.9744 47.5958 34.2994C46.1165 39.0313 43.4686 42.9826 39.6113 46.0883C37.1802 48.0447 34.3469 49.0469 31.2316 49.3023C29.4656 49.4469 27.7116 49.4011 25.9624 49.1722C24.0855 48.9265 22.6616 47.929 21.6135 46.375C21.4232 46.0931 21.4015 45.7967 21.6617 45.5582C21.9484 45.298 22.252 45.3896 22.5267 45.6136C22.5724 45.6522 22.6134 45.698 22.6471 45.7486C23.6976 47.2592 25.1938 47.9266 26.9815 48.0422C29.3644 48.1964 31.7351 48.2446 34.0433 47.4592C36.7683 46.534 38.8836 44.792 40.8665 42.7562C44.5094 39.0217 46.1863 34.4873 46.7212 29.4157C46.967 27.081 47.0441 24.7512 46.8537 22.4069C46.6634 20.0482 45.8225 17.2991 44.7239 15.7644L44.7191 15.7692Z" fill="#18473C"/>
<path d="M14 49.0951C14.0795 46.8858 15.1059 45.0956 16.5033 43.4645C17.8646 41.8792 19.5993 40.8648 21.493 40.0288C26.8128 37.6821 31.8821 34.8873 36.4863 31.307C38.6644 29.6132 40.6304 27.7195 42.0085 25.2909C42.6181 24.2187 43.0108 23.0719 43.1048 21.8359C43.1361 21.4167 43.2252 21.0408 43.736 21.0721C44.2492 21.1035 44.2877 21.513 44.2661 21.9154C44.1528 24.1465 43.2686 26.098 42.0398 27.905C39.9991 30.9095 37.2669 33.2056 34.3035 35.2366C30.263 38.005 25.8804 40.1348 21.3605 41.99C18.8162 43.0332 16.8382 44.686 15.6431 47.1869C15.0745 48.3796 14.8938 49.6276 15.46 50.8949C15.595 51.1985 15.6239 51.4996 15.2697 51.6587C14.9035 51.8225 14.6674 51.6273 14.5108 51.2924C14.1855 50.5937 13.9735 49.8733 14.0024 49.0903L14 49.0951Z" fill="#18473C"/>
<path d="M22.4374 28.7161C22.2977 29.4871 22.0833 30.2749 22.0616 31.1037C22.0038 33.4504 22.4567 35.7104 23.1723 37.927C23.3096 38.3558 23.353 38.7124 22.8928 38.9461C22.4784 39.1557 21.9652 38.9726 21.7508 38.4883C20.6545 36.0164 19.857 33.4793 20.1727 30.7231C20.2811 29.7738 20.5823 28.8871 21.24 28.1692C21.4496 27.9379 21.7267 27.6945 22.0785 27.8559C22.4158 28.0101 22.4302 28.3595 22.4374 28.7209V28.7161Z" fill="#18473C"/>
<path d="M36.4501 43.1488C33.8143 43.0211 31.2508 42.5899 28.9402 41.2021C28.5933 40.9949 28.2994 40.725 28.0319 40.4263C27.8054 40.1757 27.4898 39.9203 27.8054 39.5589C28.0849 39.2409 28.4295 39.0939 28.8704 39.3445C29.757 39.848 30.6918 40.2504 31.658 40.5853C33.624 41.2647 35.6406 41.6117 37.7247 41.4984C38.2186 41.4719 38.6836 41.5418 39.1101 41.7876C39.551 42.0429 39.551 42.2742 39.1606 42.6115C38.6354 43.0669 37.9777 43.0573 37.3512 43.1416C37.0573 43.1802 36.7537 43.1488 36.4526 43.1488H36.4501Z" fill="#18473C"/>
<path d="M33.6434 27.2587C33.6892 28.8802 33.8193 30.492 34.0434 32.0967C34.1181 32.6339 33.947 33.0194 33.4121 33.1543C32.87 33.2893 32.6941 32.9086 32.5351 32.4797C31.675 30.174 31.4774 27.8201 31.9545 25.4083C32.0316 25.0156 32.1328 24.6277 32.4122 24.3169C32.6194 24.088 32.8435 23.8664 33.1832 23.9676C33.5181 24.0687 33.6217 24.3675 33.629 24.6807C33.6458 25.3601 33.641 26.0396 33.6458 26.7214C33.6458 26.9021 33.6458 27.0804 33.6458 27.2611L33.6434 27.2587Z" fill="#18473C"/>
<path d="M40.3581 32.7833C40.0786 32.7833 39.7967 32.8122 39.5221 32.776C39.2378 32.7375 38.9848 32.5978 38.8932 32.2942C38.8041 31.993 38.9968 31.8051 39.1992 31.634C39.5582 31.328 39.9895 31.1642 40.4376 31.0606C41.7796 30.7474 43.0951 30.3474 44.3889 29.88C44.719 29.762 45.0659 29.6198 45.2755 30.0294C45.4779 30.4294 45.2876 30.7811 44.9792 31.0341C44.2636 31.6196 43.4661 32.0725 42.5843 32.3616C41.8615 32.5978 41.1291 32.7881 40.3581 32.7833Z" fill="#18473C"/>
</g>
<defs>
<clipPath id="clip0_91_1592">
<rect width="34.8944" height="38.4" fill="white" transform="translate(14 13.3232)"/>
</clipPath>
</defs>
</svg>
