<svg width="16" height="17" viewBox="0 0 16 17" fill="none" xmlns="http://www.w3.org/2000/svg">
<g clip-path="url(#clip0_88_1468)">
<g filter="url(#filter0_d_88_1468)">
<path d="M8 15.9141C12.2802 15.9141 15.75 12.4443 15.75 8.16406C15.75 3.88386 12.2802 0.414062 8 0.414062C3.71979 0.414062 0.25 3.88386 0.25 8.16406C0.25 12.4443 3.71979 15.9141 8 15.9141Z" fill="url(#paint0_linear_88_1468)"/>
</g>
<path d="M8.00005 15.3326C11.9592 15.3326 15.1688 12.1231 15.1688 8.16387C15.1688 4.20468 11.9592 0.995117 8.00005 0.995117C4.04086 0.995117 0.831299 4.20468 0.831299 8.16387C0.831299 12.1231 4.04086 15.3326 8.00005 15.3326Z" fill="url(#paint1_radial_88_1468)"/>
<path d="M8.0122 2.73865C7.96376 2.73865 7.92139 2.70234 7.92139 2.6539V1.38846C7.92139 1.34002 7.96376 1.30371 8.0122 1.30371C8.06064 1.30371 8.10301 1.34002 8.10301 1.38846V2.6539C8.09695 2.70234 8.06064 2.73865 8.0122 2.73865Z" fill="#F3F3F3"/>
<path d="M8.01216 2.74491C7.95766 2.74491 7.91528 2.70254 7.91528 2.6541V1.38866C7.91528 1.34023 7.95766 1.29785 8.01216 1.29785C8.06666 1.29785 8.10903 1.34023 8.10903 1.38866V2.6541C8.10903 2.70254 8.0606 2.74491 8.01216 2.74491ZM8.01216 1.30991C7.96978 1.30991 7.92741 1.34629 7.92741 1.38866V2.6541C7.92741 2.69648 7.96372 2.73285 8.01216 2.73285C8.05453 2.73285 8.09691 2.69648 8.09691 2.6541V1.38866C8.09091 1.34629 8.05453 1.30991 8.01216 1.30991Z" fill="white"/>
<path d="M8.61771 2.06141C8.56927 2.05535 8.53296 2.01904 8.53296 1.9706L8.57533 1.40747C8.58133 1.3591 8.62377 1.32272 8.67221 1.32879C8.72065 1.33485 8.75696 1.37122 8.75696 1.41966L8.71458 1.98272C8.70852 2.03116 8.66615 2.06747 8.61771 2.06147V2.06141Z" fill="#F3F3F3"/>
<path d="M8.61767 2.06661C8.56317 2.06055 8.52686 2.01817 8.52686 1.96973L8.56923 1.40661C8.57529 1.35823 8.61767 1.31586 8.67217 1.32186C8.72661 1.32792 8.76298 1.37036 8.76298 1.41873L8.72061 1.98186C8.71454 2.03636 8.67217 2.07267 8.61767 2.06661ZM8.67217 1.33398C8.62979 1.33398 8.58736 1.3643 8.58736 1.40667L8.54498 1.9698C8.54498 2.01211 8.57529 2.04848 8.62373 2.05448C8.66611 2.05448 8.70848 2.02423 8.70848 1.98186L8.75086 1.41873C8.75086 1.37636 8.71454 1.34005 8.67211 1.33398H8.67217Z" fill="white"/>
<path d="M9.07175 2.84799C9.02325 2.83587 8.993 2.79349 8.99906 2.74506L9.24731 1.50381C9.25944 1.45543 9.30181 1.42512 9.35025 1.43724C9.39869 1.44937 9.42894 1.49174 9.42287 1.54018L9.17462 2.78143C9.16856 2.82374 9.12012 2.85406 9.07169 2.84799H9.07175Z" fill="#F3F3F3"/>
<path d="M9.07195 2.85394C9.01739 2.84181 8.98714 2.79337 8.9932 2.74494L9.24145 1.50369C9.25357 1.45531 9.30201 1.41894 9.35645 1.43106C9.41095 1.44319 9.44126 1.49162 9.4352 1.54006L9.18695 2.78131C9.17482 2.82969 9.12639 2.86 9.07195 2.85394ZM9.35645 1.44319C9.31407 1.43712 9.2717 1.46131 9.25957 1.50375L9.01139 2.745C9.00532 2.78731 9.02951 2.82969 9.07795 2.84187C9.12032 2.84787 9.1627 2.82362 9.17482 2.78125L9.42307 1.54006C9.42914 1.49162 9.39889 1.45531 9.35645 1.44319Z" fill="white"/>
<path d="M9.79835 2.30347C9.78682 2.30069 9.77595 2.29566 9.76636 2.28868C9.75677 2.28169 9.74866 2.27289 9.74247 2.26276C9.73629 2.25264 9.73217 2.2414 9.73033 2.22968C9.7285 2.21796 9.72899 2.20599 9.73179 2.19447L9.88316 1.64959C9.89523 1.60115 9.94366 1.5769 9.9921 1.58903C10.0405 1.60115 10.0709 1.64959 10.0587 1.69803L9.90735 2.24297C9.89523 2.29134 9.84679 2.31559 9.79835 2.30347Z" fill="#F3F3F3"/>
<path d="M9.79838 2.30931C9.74995 2.29719 9.71363 2.24269 9.73182 2.19431L9.8832 1.64931C9.89526 1.60094 9.94976 1.57063 9.9982 1.58275C10.0466 1.59488 10.0829 1.64938 10.0648 1.69775L9.91345 2.24275C9.90132 2.29113 9.85288 2.32144 9.79845 2.30931H9.79838ZM9.9982 1.60094C9.95582 1.58881 9.90738 1.61306 9.89526 1.65544L9.74395 2.20031C9.73182 2.24269 9.75601 2.28513 9.80445 2.29719C9.84682 2.30931 9.89526 2.28513 9.90738 2.24275L10.0588 1.69775C10.0648 1.65544 10.0406 1.61306 9.9982 1.60088V1.60094Z" fill="white"/>
<path d="M10.0951 3.15692C10.0467 3.13874 10.0286 3.08424 10.0467 3.04186L10.5311 1.8733C10.5492 1.83092 10.6037 1.80667 10.6461 1.83092C10.6946 1.84905 10.7127 1.90361 10.6946 1.94592L10.2102 3.11449C10.1921 3.15692 10.1375 3.18111 10.0952 3.15692H10.0951Z" fill="#F3F3F3"/>
<path d="M10.095 3.1634C10.0717 3.15454 10.0529 3.13681 10.0427 3.1141C10.0325 3.0914 10.0317 3.06557 10.0405 3.04228L10.5249 1.87372C10.5431 1.82528 10.5976 1.80709 10.6521 1.82528C10.6753 1.83414 10.6941 1.85187 10.7043 1.87458C10.7145 1.89728 10.7153 1.92311 10.7066 1.9464L10.2222 3.11497C10.1979 3.1634 10.1434 3.18759 10.095 3.1634ZM10.646 1.8374C10.6036 1.81928 10.5552 1.8374 10.537 1.87978L10.0526 3.04834C10.0345 3.09072 10.0587 3.13309 10.1011 3.15128C10.1434 3.1694 10.1919 3.15128 10.2101 3.1089L10.6944 1.94034C10.7066 1.90397 10.6884 1.85553 10.646 1.8374Z" fill="white"/>
<path d="M10.9125 2.76929C10.8701 2.74504 10.8519 2.6966 10.8701 2.65423L11.1244 2.15173C11.1486 2.10929 11.197 2.0911 11.2455 2.11535C11.2879 2.1396 11.306 2.18804 11.2879 2.23035L11.0335 2.73292C11.0093 2.77529 10.9609 2.79354 10.9124 2.76929H10.9125Z" fill="#F3F3F3"/>
<path d="M10.9125 2.77557C10.864 2.75132 10.8459 2.69682 10.87 2.64838L11.1244 2.14588C11.1485 2.09738 11.2031 2.07925 11.2515 2.10344C11.2999 2.12769 11.3181 2.18219 11.2939 2.23063L11.0396 2.73313C11.0154 2.78157 10.9609 2.79975 10.9124 2.7755L10.9125 2.77557ZM11.2455 2.11557C11.203 2.09744 11.1546 2.1095 11.1365 2.15188L10.8822 2.65444C10.864 2.69075 10.8822 2.73919 10.9185 2.76344C10.9609 2.78157 11.0093 2.7695 11.0275 2.72713L11.2818 2.22457C11.2999 2.18825 11.2818 2.13982 11.2455 2.11557Z" fill="white"/>
<path d="M11.0335 3.66592C10.9911 3.63567 10.979 3.58117 11.0092 3.54486L11.7116 2.49736C11.7358 2.45498 11.7904 2.44892 11.8327 2.47317C11.8751 2.50342 11.8872 2.55792 11.8569 2.59423L11.1545 3.64173C11.1304 3.68411 11.0759 3.69623 11.0335 3.66592Z" fill="#F3F3F3"/>
<path d="M11.0336 3.67191C10.9912 3.64166 10.9791 3.5811 11.0033 3.53872L11.7056 2.49122C11.7359 2.44885 11.7904 2.43672 11.8388 2.46704C11.8812 2.49729 11.8933 2.55785 11.8691 2.60022L11.1668 3.64772C11.1365 3.6901 11.076 3.70216 11.0336 3.67191ZM11.8328 2.47916C11.7965 2.45491 11.742 2.46097 11.7178 2.49729L11.0154 3.54479C10.9912 3.58104 11.0033 3.62954 11.0396 3.65372C11.076 3.67797 11.1305 3.67191 11.1546 3.6356L11.857 2.59416C11.8812 2.55785 11.8691 2.50335 11.8328 2.47916Z" fill="white"/>
<path d="M11.9176 3.44126C11.8813 3.41095 11.8692 3.35645 11.8995 3.32014L12.2507 2.87814C12.2809 2.84189 12.3354 2.83576 12.3717 2.86607C12.4081 2.89632 12.4202 2.95082 12.3898 2.98714L12.0387 3.42914C12.0085 3.46545 11.954 3.47151 11.9177 3.44126H11.9176Z" fill="#F3F3F3"/>
<path d="M11.9116 3.44713C11.8692 3.41682 11.8631 3.35626 11.8935 3.31388L12.2446 2.87195C12.2748 2.82951 12.3354 2.82345 12.3778 2.85982C12.4201 2.89007 12.4262 2.95063 12.3959 2.99301L12.0448 3.43501C12.0145 3.47738 11.954 3.48345 11.9116 3.44713ZM12.3656 2.87188C12.3294 2.84163 12.2809 2.8477 12.2506 2.88401L11.8995 3.32601C11.8753 3.36232 11.8813 3.41076 11.9176 3.44101C11.954 3.47132 12.0024 3.46526 12.0326 3.42895L12.3838 2.98695C12.4081 2.95063 12.402 2.89613 12.3657 2.87195L12.3656 2.87188Z" fill="white"/>
<path d="M11.8571 4.34964C11.8208 4.31332 11.8208 4.25882 11.8571 4.22851L12.7531 3.33851C12.7895 3.3022 12.8439 3.3082 12.8743 3.33851C12.9045 3.36876 12.9106 3.42932 12.8743 3.45957L11.9843 4.34964C11.9479 4.38595 11.8934 4.38595 11.8571 4.34964Z" fill="#F3F3F3"/>
<path d="M11.851 4.35522C11.8335 4.33745 11.8237 4.31354 11.8237 4.28862C11.8237 4.26371 11.8335 4.2398 11.851 4.22203L12.747 3.33197C12.7648 3.31448 12.7887 3.30469 12.8137 3.30469C12.8386 3.30469 12.8625 3.31448 12.8803 3.33197C12.8978 3.34973 12.9075 3.37365 12.9075 3.39856C12.9075 3.42347 12.8978 3.44739 12.8803 3.46515L11.9842 4.35515C11.9664 4.37262 11.9425 4.3824 11.9176 4.3824C11.8927 4.3824 11.8687 4.37262 11.851 4.35515V4.35522ZM12.8742 3.33803C12.844 3.30772 12.7895 3.30772 12.7592 3.33803L11.8631 4.22803C11.8328 4.25834 11.8328 4.31284 11.8631 4.34309C11.8934 4.3734 11.9479 4.3734 11.9781 4.34309L12.8742 3.45309C12.9045 3.42278 12.9045 3.37434 12.8742 3.33803Z" fill="white"/>
<path d="M12.7651 4.30161C12.7349 4.2653 12.7349 4.2108 12.7712 4.18048L13.2011 3.81723C13.2374 3.78698 13.2919 3.79298 13.3222 3.82936C13.3525 3.86567 13.3525 3.92017 13.3161 3.95042L12.8863 4.31373C12.8499 4.34398 12.7954 4.33792 12.7651 4.30161Z" fill="#F3F3F3"/>
<path d="M12.759 4.30745C12.7227 4.26507 12.7288 4.20451 12.7651 4.17426L13.1949 3.81095C13.2313 3.77464 13.2918 3.7807 13.3281 3.82307C13.3645 3.86545 13.3584 3.92601 13.3221 3.95626L12.8922 4.31957C12.8559 4.35582 12.7953 4.34982 12.7591 4.30745H12.759ZM13.3161 3.82914C13.2858 3.79282 13.2373 3.79282 13.2011 3.81701L12.7711 4.18032C12.7409 4.21057 12.7348 4.25901 12.7651 4.29532C12.7953 4.33164 12.8438 4.33164 12.8801 4.30745L13.31 3.94414C13.3463 3.91389 13.3463 3.86545 13.3161 3.82914Z" fill="white"/>
<path d="M12.5229 5.17297C12.4926 5.13059 12.5048 5.07609 12.5471 5.05184L13.6006 4.34953C13.643 4.32528 13.6975 4.33741 13.7217 4.37378C13.752 4.41616 13.7399 4.47066 13.6975 4.49484L12.644 5.19716C12.6076 5.22141 12.5531 5.20928 12.5229 5.17297Z" fill="#F3F3F3"/>
<path d="M12.5168 5.17333C12.4865 5.13096 12.4987 5.0704 12.541 5.04015L13.5945 4.33777C13.6369 4.30752 13.6975 4.31965 13.7277 4.36808C13.758 4.41046 13.7459 4.47102 13.7035 4.50121L12.65 5.20365C12.6076 5.23396 12.5471 5.22183 12.5168 5.1734V5.17333ZM13.7156 4.38021C13.6914 4.34383 13.643 4.33171 13.6067 4.35596L12.5531 5.05827C12.5169 5.08252 12.5047 5.13096 12.535 5.17333C12.5592 5.20965 12.6076 5.22177 12.644 5.19758L13.6975 4.49521C13.7338 4.46496 13.7399 4.41646 13.7156 4.38021Z" fill="white"/>
<path d="M13.4252 5.30014C13.401 5.2577 13.4131 5.20326 13.4555 5.17901L13.9459 4.90051C13.9883 4.87626 14.0428 4.89445 14.067 4.93676C14.0912 4.9792 14.0791 5.03364 14.0367 5.05789L13.5463 5.33645C13.5039 5.36064 13.4494 5.34251 13.4251 5.30008L13.4252 5.30014Z" fill="#F3F3F3"/>
<path d="M13.4191 5.30614C13.3949 5.2577 13.407 5.2032 13.4493 5.17901L13.9398 4.90051C13.9822 4.87626 14.0427 4.89445 14.0669 4.93676C14.0912 4.98526 14.079 5.03976 14.0367 5.06395L13.5462 5.34251C13.5039 5.3667 13.4433 5.34851 13.4191 5.30614ZM14.0608 4.94289C14.0367 4.90051 13.9882 4.88839 13.9519 4.91258L13.4615 5.19114C13.4252 5.21533 13.413 5.26376 13.4312 5.30008C13.4554 5.34245 13.5039 5.35458 13.5402 5.33039L14.0306 5.05183C14.0669 5.0337 14.079 4.98526 14.0608 4.94289Z" fill="white"/>
<path d="M13.0196 6.10549C13.0015 6.05706 13.0196 6.00862 13.068 5.99049L14.2366 5.50612C14.279 5.48793 14.3335 5.51212 14.3516 5.55449C14.3698 5.60293 14.3516 5.65137 14.3032 5.66949L13.1347 6.15387C13.0922 6.17206 13.0378 6.15387 13.0196 6.10549Z" fill="#F3F3F3"/>
<path d="M13.0135 6.11169C12.9954 6.06331 13.0135 6.00881 13.0619 5.98456L14.2305 5.50018C14.2538 5.49141 14.2796 5.49222 14.3023 5.50243C14.325 5.51265 14.3427 5.53144 14.3515 5.55469C14.3697 5.60312 14.3515 5.65762 14.3031 5.68181L13.1346 6.16618C13.1113 6.17498 13.0855 6.1742 13.0628 6.16399C13.0401 6.15379 13.0224 6.135 13.0135 6.11175V6.11169ZM14.3395 5.56075C14.3213 5.51837 14.2729 5.50018 14.2365 5.51231L13.068 5.99668C13.0256 6.01481 13.0074 6.06331 13.0256 6.10569C13.0437 6.14806 13.0922 6.16625 13.1285 6.15412L14.297 5.66975C14.3395 5.65162 14.3577 5.60312 14.3395 5.56075Z" fill="white"/>
<path d="M13.8732 6.40835C13.8551 6.35985 13.8793 6.31148 13.9277 6.29329L14.4605 6.11767C14.5029 6.09954 14.5574 6.12979 14.5695 6.17217C14.5876 6.2206 14.5635 6.26904 14.515 6.28723L13.9822 6.46285C13.9398 6.48098 13.8914 6.45679 13.8732 6.40829V6.40835Z" fill="#F3F3F3"/>
<path d="M13.867 6.4143C13.8489 6.36587 13.8731 6.31137 13.9277 6.29324L14.4604 6.11762C14.5088 6.09949 14.5633 6.12974 14.5815 6.17824C14.5997 6.22662 14.5755 6.28112 14.5209 6.2993L13.9882 6.47493C13.9397 6.48699 13.8852 6.46274 13.867 6.4143ZM14.5694 6.1843C14.5573 6.14187 14.5088 6.11762 14.4665 6.12974L13.9337 6.30537C13.8913 6.31743 13.8731 6.36587 13.8852 6.4083C13.8973 6.45068 13.9458 6.47487 13.9882 6.46274L14.521 6.28718C14.5633 6.26905 14.5815 6.22662 14.5694 6.18424V6.1843Z" fill="white"/>
<path d="M13.3284 7.12873C13.3162 7.08029 13.3465 7.03185 13.3949 7.02579L14.6362 6.7836C14.6845 6.77148 14.727 6.80779 14.739 6.85623C14.7512 6.90467 14.7209 6.9531 14.6725 6.95917L13.4312 7.20135C13.3828 7.20742 13.3344 7.17717 13.3283 7.12873H13.3284Z" fill="#F3F3F3"/>
<path d="M13.3161 7.12912C13.3039 7.07462 13.3403 7.02618 13.3887 7.01406L14.6299 6.77187C14.6784 6.75974 14.7268 6.79612 14.7389 6.85062C14.751 6.90506 14.7147 6.95349 14.6663 6.96562L13.425 7.20781C13.3766 7.21993 13.3281 7.18362 13.3161 7.12906V7.12912ZM14.7268 6.85662C14.7208 6.81424 14.6784 6.78399 14.636 6.79006L13.3948 7.03224C13.3524 7.03831 13.3221 7.08668 13.3342 7.12912C13.3403 7.17149 13.3826 7.20174 13.4251 7.19568L14.6663 6.95349C14.7086 6.94137 14.7389 6.89899 14.7268 6.85662Z" fill="white"/>
<path d="M14.1033 7.59481C14.0972 7.54638 14.1275 7.504 14.1759 7.49794L14.7329 7.43131C14.7814 7.42531 14.8238 7.46163 14.8298 7.51006C14.8359 7.5585 14.8056 7.60088 14.7572 7.60694L14.2001 7.6735C14.1577 7.67956 14.1093 7.64325 14.1032 7.59481H14.1033Z" fill="#F3F3F3"/>
<path d="M14.0971 7.59517C14.091 7.54067 14.1273 7.49223 14.1758 7.48617L14.7328 7.4196C14.7812 7.41354 14.8297 7.44986 14.8357 7.50436C14.8418 7.55886 14.8055 7.60729 14.757 7.61336L14.2 7.67992C14.1516 7.68598 14.1031 7.64967 14.0971 7.59517ZM14.8297 7.51042C14.8237 7.46804 14.7813 7.43167 14.7388 7.43773L14.1818 7.50436C14.1395 7.51042 14.1092 7.55279 14.1152 7.59517C14.1213 7.63754 14.1637 7.67392 14.206 7.66785L14.7631 7.60123C14.8055 7.59517 14.8357 7.55279 14.8297 7.51042H14.8297Z" fill="white"/>
<path d="M13.425 8.18261C13.425 8.13417 13.4613 8.0918 13.5098 8.0918H14.7752C14.8237 8.0918 14.86 8.13417 14.86 8.18261C14.86 8.23105 14.8237 8.27342 14.7752 8.27342H13.5098C13.4614 8.27342 13.425 8.23105 13.425 8.18261Z" fill="#F3F3F3"/>
<path d="M13.4192 8.18184C13.4192 8.12734 13.4616 8.08496 13.51 8.08496H14.7754C14.8239 8.08496 14.8663 8.12734 14.8663 8.18184C14.8663 8.23634 14.8239 8.27871 14.7754 8.27871H13.51C13.4616 8.27871 13.4192 8.23634 13.4192 8.18184ZM14.8541 8.1879C14.8541 8.14552 14.8178 8.10315 14.7754 8.10315H13.5101C13.4677 8.10315 13.4313 8.1394 13.4313 8.1879C13.4313 8.23027 13.4677 8.27265 13.5101 8.27265H14.7755C14.8179 8.26659 14.8542 8.23027 14.8542 8.1879H14.8541Z" fill="white"/>
<path d="M14.0972 8.79373C14.1032 8.7453 14.1396 8.70898 14.188 8.70898L14.7512 8.75136C14.7995 8.75742 14.8359 8.7998 14.8298 8.84823C14.8238 8.89667 14.7874 8.93298 14.739 8.93298L14.1759 8.89061C14.1335 8.88455 14.0972 8.84217 14.0972 8.79373H14.0972Z" fill="#F3F3F3"/>
<path d="M14.0911 8.79394C14.0971 8.73944 14.1395 8.70312 14.1879 8.70312L14.7511 8.7455C14.7994 8.75156 14.8418 8.79394 14.8358 8.84844C14.8298 8.90294 14.7873 8.93925 14.7389 8.93925L14.1758 8.89687C14.1274 8.89081 14.0911 8.84238 14.0911 8.79394ZM14.8298 8.84844C14.8358 8.80606 14.7994 8.76369 14.7571 8.76369L14.1939 8.72131C14.1516 8.72131 14.1153 8.75156 14.1092 8.80006C14.1032 8.84238 14.1395 8.88475 14.1819 8.88475L14.745 8.92712C14.7873 8.92712 14.8237 8.89087 14.8298 8.84844Z" fill="white"/>
<path d="M13.3162 9.23552C13.3283 9.18708 13.3707 9.15677 13.4191 9.16289L14.6603 9.41114C14.7088 9.42321 14.7391 9.46558 14.727 9.51402C14.7148 9.56246 14.6725 9.59277 14.624 9.5867L13.3828 9.33845C13.3404 9.33239 13.3101 9.28395 13.3162 9.23552Z" fill="#F3F3F3"/>
<path d="M13.3101 9.23575C13.3222 9.18125 13.3707 9.151 13.4191 9.157L14.6603 9.40531C14.7087 9.41738 14.745 9.46581 14.7329 9.52031C14.7208 9.57481 14.6724 9.60513 14.624 9.59906L13.3827 9.35081C13.3343 9.33869 13.304 9.29025 13.3101 9.23581V9.23575ZM14.7208 9.52031C14.7269 9.47794 14.7027 9.43556 14.6603 9.42344L13.419 9.17519C13.3767 9.16919 13.3343 9.19338 13.3222 9.24181C13.3162 9.28419 13.3403 9.32656 13.3828 9.33869L14.624 9.58694C14.6724 9.593 14.7087 9.56269 14.7208 9.52031Z" fill="white"/>
<path d="M13.861 9.96264C13.8638 9.95112 13.8688 9.94025 13.8758 9.93067C13.8828 9.92109 13.8916 9.91297 13.9017 9.90679C13.9118 9.90061 13.9231 9.89648 13.9348 9.89465C13.9465 9.89281 13.9585 9.8933 13.97 9.89608L14.5149 10.0474C14.5634 10.0595 14.5875 10.108 14.5755 10.1564C14.5727 10.1679 14.5677 10.1788 14.5607 10.1884C14.5537 10.198 14.5449 10.2061 14.5348 10.2123C14.5247 10.2185 14.5134 10.2226 14.5017 10.2245C14.49 10.2263 14.478 10.2258 14.4665 10.223L13.9215 10.0716C13.8731 10.0595 13.8489 10.0111 13.861 9.96264H13.861Z" fill="#F3F3F3"/>
<path d="M13.8549 9.96196C13.8671 9.91352 13.9216 9.87721 13.97 9.8954L14.5149 10.0467C14.5634 10.0588 14.5937 10.1133 14.5816 10.1618C14.5694 10.2102 14.5149 10.2465 14.4665 10.2284L13.9216 10.077C13.8731 10.0649 13.8428 10.0165 13.855 9.96202L13.8549 9.96196ZM14.5634 10.1618C14.5755 10.1194 14.5512 10.071 14.5089 10.0588L13.9639 9.90746C13.9216 9.89533 13.8792 9.91958 13.8671 9.96802C13.855 10.0104 13.8792 10.0588 13.9216 10.071L14.4665 10.2223C14.5089 10.2284 14.5512 10.2042 14.5634 10.1618Z" fill="white"/>
<path d="M13.0074 10.2526C13.0255 10.2042 13.0801 10.186 13.1224 10.2042L14.291 10.6886C14.3334 10.7067 14.3576 10.7612 14.3395 10.8036C14.3213 10.8521 14.2668 10.8702 14.2244 10.8521L13.0558 10.3677C13.0074 10.3496 12.9892 10.295 13.0074 10.2527V10.2526Z" fill="#F3F3F3"/>
<path d="M13.0013 10.2471C13.0101 10.2238 13.0279 10.205 13.0506 10.1948C13.0733 10.1846 13.0991 10.1838 13.1224 10.1926L14.291 10.677C14.3394 10.6952 14.3575 10.7497 14.3394 10.8042C14.3305 10.8274 14.3128 10.8462 14.2901 10.8564C14.2674 10.8666 14.2416 10.8674 14.2183 10.8587L13.0497 10.3743C13.0013 10.35 12.9832 10.2955 13.0013 10.2471ZM14.3273 10.7981C14.3454 10.7557 14.3273 10.7073 14.2849 10.6891L13.1163 10.2047C13.074 10.1866 13.0316 10.2108 13.0134 10.2532C12.9953 10.2955 13.0134 10.344 13.0558 10.3622L14.2243 10.8465C14.2667 10.8587 14.3152 10.8405 14.3273 10.7981Z" fill="white"/>
<path d="M13.401 11.0699C13.4252 11.0275 13.4736 11.0093 13.516 11.0275L14.0186 11.2818C14.0609 11.3 14.0791 11.3545 14.0549 11.4029C14.0307 11.4453 13.9822 11.4635 13.9399 11.4453L13.4374 11.191C13.3949 11.1668 13.3767 11.1123 13.401 11.0699Z" fill="#F3F3F3"/>
<path d="M13.3949 11.0638C13.4192 11.0153 13.4737 10.9972 13.5221 11.0214L14.0246 11.2757C14.0731 11.3 14.0913 11.3545 14.067 11.4028C14.0428 11.4513 13.9883 11.4695 13.9399 11.4452L13.4374 11.191C13.3889 11.1728 13.3708 11.1122 13.3949 11.0638ZM14.0489 11.3968C14.067 11.3544 14.0549 11.306 14.0125 11.2878L13.51 11.0335C13.4736 11.0154 13.4253 11.0335 13.401 11.0698C13.3829 11.1122 13.3949 11.1607 13.4373 11.1788L13.9398 11.4332C13.9823 11.4513 14.0307 11.4392 14.0489 11.3968Z" fill="white"/>
<path d="M12.5109 11.1856C12.5412 11.1432 12.5897 11.1311 12.6321 11.1613L13.6856 11.8637C13.7279 11.8879 13.734 11.9425 13.7098 11.9848C13.6795 12.0272 13.6311 12.0393 13.5887 12.009L12.5352 11.3066C12.4928 11.2764 12.4807 11.2219 12.5109 11.1856Z" fill="#F3F3F3"/>
<path d="M12.5048 11.1793C12.5351 11.137 12.5957 11.1248 12.6381 11.1491L13.6916 11.8514C13.7339 11.8816 13.7461 11.9361 13.7157 11.9846C13.6855 12.027 13.6249 12.0391 13.5826 12.0149L12.5291 11.3125C12.4806 11.2823 12.4746 11.2217 12.5048 11.1793ZM13.6976 11.9785C13.7218 11.9423 13.7157 11.8877 13.6795 11.8635L12.6259 11.1611C12.5896 11.137 12.5412 11.1491 12.5169 11.1854C12.4927 11.2217 12.4988 11.2762 12.5351 11.3004L13.5886 12.0028C13.6249 12.027 13.6734 12.0149 13.6976 11.9786V11.9785Z" fill="white"/>
<path d="M12.735 12.0636C12.7652 12.0273 12.8197 12.0152 12.856 12.0455L13.298 12.3906C13.3343 12.4208 13.3404 12.4753 13.3102 12.5117C13.2799 12.548 13.2254 12.5601 13.189 12.5298L12.747 12.1847C12.7108 12.1545 12.7047 12.1 12.735 12.0636Z" fill="#F3F3F3"/>
<path d="M12.7289 12.0576C12.7591 12.0152 12.8197 12.0091 12.8621 12.0395L13.3041 12.3845C13.3464 12.4148 13.3525 12.4753 13.3222 12.5177C13.2919 12.5601 13.2314 12.5661 13.1891 12.5359L12.747 12.1908C12.7046 12.1605 12.6986 12.1 12.7289 12.0576ZM13.3101 12.5117C13.3404 12.4753 13.3343 12.4269 13.298 12.3966L12.856 12.0515C12.8197 12.0273 12.7713 12.0334 12.741 12.0696C12.7107 12.106 12.7168 12.1545 12.7531 12.1847L13.1951 12.5298C13.2314 12.5541 13.2798 12.548 13.3101 12.5117H13.3101Z" fill="white"/>
<path d="M11.8327 12.0028C11.8691 11.9665 11.9236 11.9665 11.9539 12.0028L12.8499 12.8928C12.8863 12.9292 12.8802 12.9837 12.8499 13.0139C12.8137 13.0503 12.7591 13.0503 12.7289 13.0139L11.8327 12.1239C11.8025 12.0936 11.8025 12.0331 11.8327 12.0028Z" fill="#F3F3F3"/>
<path d="M11.8328 11.997C11.8506 11.9795 11.8745 11.9697 11.8994 11.9697C11.9244 11.9697 11.9483 11.9795 11.9661 11.997L12.8621 12.887C12.8796 12.9048 12.8894 12.9287 12.8894 12.9536C12.8894 12.9786 12.8796 13.0025 12.8621 13.0203C12.8444 13.0377 12.8204 13.0475 12.7955 13.0475C12.7706 13.0475 12.7467 13.0377 12.7289 13.0203L11.8328 12.1303C11.7904 12.0939 11.7904 12.0334 11.8328 11.997ZM12.85 13.0081C12.8803 12.9779 12.8803 12.9234 12.85 12.8931L11.9539 12.0031C11.9237 11.9728 11.8692 11.9728 11.8389 12.0031C11.8086 12.0333 11.8086 12.0878 11.8389 12.1181L12.735 13.0081C12.7652 13.0445 12.8137 13.0445 12.85 13.0081Z" fill="white"/>
<path d="M11.8872 12.9048C11.9236 12.8745 11.978 12.8745 12.0083 12.9109L12.3777 13.3347C12.4079 13.371 12.4019 13.4255 12.3655 13.4558C12.3293 13.486 12.2747 13.486 12.2445 13.4497L11.8751 13.0259C11.8448 12.9957 11.8509 12.9412 11.8872 12.9048Z" fill="#F3F3F3"/>
<path d="M11.8812 12.9052C11.9236 12.869 11.9781 12.875 12.0143 12.9113L12.3837 13.3351C12.42 13.3715 12.414 13.432 12.3716 13.4684C12.3292 13.5047 12.2747 13.4986 12.2384 13.4623L11.869 13.0385C11.8388 12.9961 11.8388 12.9355 11.8811 12.9052H11.8812ZM12.3656 13.4562C12.4018 13.426 12.4018 13.3775 12.3776 13.3412L12.0083 12.9174C11.978 12.8871 11.9296 12.881 11.8933 12.9113C11.857 12.9416 11.857 12.99 11.8811 13.0263L12.2505 13.4502C12.2808 13.4865 12.3293 13.4865 12.3655 13.4562H12.3656Z" fill="white"/>
<path d="M11.0154 12.675C11.0578 12.6447 11.1123 12.6569 11.1365 12.6992L11.8388 13.7467C11.863 13.7891 11.8509 13.8436 11.8146 13.8678C11.7722 13.8981 11.7177 13.8859 11.6934 13.8436L10.9911 12.7961C10.9669 12.7537 10.979 12.6992 11.0153 12.675H11.0154Z" fill="#F3F3F3"/>
<path d="M11.0152 12.6691C11.0576 12.6389 11.1182 12.651 11.1484 12.6934L11.8508 13.7409C11.8811 13.7832 11.8689 13.8438 11.8206 13.874C11.7781 13.9043 11.7176 13.8922 11.6873 13.8498L10.985 12.8023C10.9547 12.754 10.9669 12.6995 11.0152 12.6692V12.6691ZM11.8145 13.862C11.8508 13.8377 11.8629 13.7893 11.8387 13.753L11.1364 12.7055C11.1121 12.6692 11.0637 12.6631 11.0214 12.6873C10.985 12.7115 10.9729 12.76 10.9971 12.7963L11.6994 13.8438C11.7237 13.874 11.7782 13.8861 11.8144 13.8619L11.8145 13.862Z" fill="white"/>
<path d="M10.8883 13.5709C10.9306 13.5467 10.9851 13.5588 11.0093 13.6012L11.2879 14.0917C11.3121 14.134 11.2939 14.1885 11.2515 14.2127C11.2091 14.237 11.1546 14.2248 11.1304 14.1825L10.8519 13.692C10.8338 13.6497 10.8459 13.5952 10.8882 13.571L10.8883 13.5709Z" fill="#F3F3F3"/>
<path d="M10.8883 13.5651C10.9367 13.5408 10.9912 13.553 11.0154 13.5953L11.2939 14.0858C11.3182 14.1282 11.306 14.1887 11.2577 14.2129C11.2092 14.2372 11.1547 14.225 11.1305 14.1827L10.852 13.6922C10.8277 13.6498 10.8398 13.5953 10.8882 13.5651H10.8883ZM11.2515 14.2069C11.2879 14.1827 11.306 14.1342 11.2818 14.0979L11.0033 13.6075C10.9791 13.5712 10.9307 13.559 10.8943 13.5772C10.858 13.6014 10.8398 13.6498 10.864 13.6862L11.1426 14.1766C11.1607 14.2129 11.2152 14.2311 11.2515 14.2068V14.2069Z" fill="white"/>
<path d="M10.0828 13.1711C10.1313 13.1529 10.1797 13.1711 10.1979 13.2134L10.6883 14.382C10.7064 14.4244 10.6823 14.4789 10.6399 14.497C10.5975 14.5152 10.543 14.497 10.5249 14.4546L10.0344 13.2861C10.0163 13.2437 10.0404 13.1892 10.0828 13.1711Z" fill="#F3F3F3"/>
<path d="M10.0829 13.1651C10.1314 13.147 10.1859 13.1651 10.2101 13.2135L10.7006 14.3821C10.7093 14.4054 10.7085 14.4312 10.6983 14.4539C10.6881 14.4766 10.6693 14.4943 10.6461 14.5032C10.5976 14.5213 10.5431 14.5032 10.5189 14.4547L10.0285 13.2862C10.0103 13.2438 10.0346 13.1893 10.0829 13.1651ZM10.6339 14.4911C10.6763 14.4729 10.6945 14.4245 10.6763 14.3882L10.1859 13.2196C10.1678 13.1772 10.1193 13.159 10.0769 13.1772C10.0346 13.1953 10.0163 13.2438 10.0346 13.2802L10.5249 14.4487C10.5492 14.4911 10.5916 14.5092 10.6339 14.4911Z" fill="white"/>
<path d="M9.78628 14.0314C9.83478 14.0133 9.88316 14.0375 9.90134 14.0859L10.077 14.6187C10.0951 14.6611 10.0648 14.7156 10.0225 14.7277C9.97403 14.7458 9.92559 14.7217 9.90747 14.6732L9.73184 14.1404C9.71372 14.098 9.73791 14.0496 9.78634 14.0314H9.78628Z" fill="#F3F3F3"/>
<path d="M9.78021 14.0246C9.80349 14.0158 9.8293 14.0166 9.85199 14.0268C9.87468 14.0371 9.8924 14.0558 9.90127 14.0791L10.0769 14.6119C10.095 14.6603 10.0648 14.7148 10.0163 14.733C9.99298 14.7418 9.96717 14.741 9.94448 14.7308C9.92179 14.7206 9.90407 14.7018 9.89521 14.6785L9.71964 14.1457C9.70752 14.0973 9.73177 14.0428 9.78021 14.0246ZM10.0163 14.7208C10.0587 14.7088 10.0829 14.6603 10.0708 14.618L9.89521 14.0852C9.88314 14.0428 9.83471 14.0246 9.79233 14.0367C9.74989 14.0488 9.72571 14.0973 9.73783 14.1397L9.91339 14.6725C9.91648 14.6828 9.9217 14.6923 9.9287 14.7004C9.93571 14.7085 9.94435 14.7151 9.95406 14.7197C9.96377 14.7242 9.97433 14.7267 9.98506 14.7269C9.99579 14.7271 10.0064 14.7251 10.0163 14.7209V14.7208Z" fill="white"/>
<path d="M9.0718 13.4802C9.12017 13.4681 9.16867 13.4983 9.17467 13.5468L9.42898 14.788C9.44111 14.8364 9.40473 14.8788 9.3563 14.8909C9.30792 14.903 9.25942 14.8728 9.25342 14.8243L8.99905 13.5831C8.99305 13.5407 9.0233 13.4923 9.07173 13.4802L9.0718 13.4802Z" fill="#F3F3F3"/>
<path d="M9.07196 13.474C9.1264 13.4619 9.17484 13.4983 9.18696 13.5467L9.44127 14.7879C9.4534 14.8363 9.41702 14.8908 9.36859 14.8969C9.31409 14.909 9.26565 14.8727 9.25359 14.8243L8.99921 13.583C8.98715 13.5346 9.01746 13.4861 9.0719 13.4741L9.07196 13.474ZM9.35646 14.8848C9.3989 14.8788 9.42915 14.8363 9.42309 14.7879L9.16877 13.5467C9.16277 13.5043 9.11434 13.4741 9.0719 13.4861C9.02952 13.4922 8.99927 13.5346 9.00534 13.583L9.25965 14.8243C9.27171 14.8666 9.31409 14.8908 9.35652 14.8848L9.35646 14.8848Z" fill="white"/>
<path d="M8.61158 14.2674C8.66001 14.2613 8.70239 14.2916 8.71451 14.3401L8.78714 14.8971C8.7932 14.9455 8.75689 14.9879 8.70839 14.9939C8.66001 15 8.61764 14.9697 8.60551 14.9213L8.53289 14.3642C8.52683 14.3158 8.56314 14.2734 8.61158 14.2674Z" fill="#F3F3F3"/>
<path d="M8.61153 14.2614C8.66603 14.2554 8.71447 14.2917 8.72053 14.3401L8.79316 14.8971C8.79922 14.9456 8.76291 14.994 8.70841 15.0001C8.65391 15.0061 8.60547 14.9698 8.59941 14.9213L8.52678 14.3643C8.52072 14.3159 8.55703 14.2675 8.61153 14.2614ZM8.70235 14.988C8.74472 14.982 8.7811 14.9395 8.77503 14.8971L8.70235 14.3401C8.69628 14.2978 8.65391 14.2675 8.61153 14.2735C8.56916 14.2796 8.53278 14.322 8.53885 14.3643L8.61153 14.9214C8.6176 14.9638 8.65997 14.994 8.70235 14.988Z" fill="white"/>
<path d="M7.98803 13.5889C8.03647 13.5889 8.07884 13.6252 8.07884 13.6737V14.9391C8.07884 14.9875 8.03647 15.0239 7.98803 15.0239C7.93959 15.0239 7.89722 14.9875 7.89722 14.9391V13.6737C7.90328 13.6252 7.93959 13.5889 7.98803 13.5889Z" fill="#F3F3F3"/>
<path d="M7.98799 13.583C8.04249 13.583 8.08486 13.6254 8.08486 13.6738V14.9393C8.08486 14.9877 8.04249 15.0301 7.98799 15.0301C7.93349 15.0301 7.89111 14.9877 7.89111 14.9393V13.6739C7.89111 13.6254 7.93955 13.583 7.98799 13.583ZM7.98799 15.018C8.03036 15.018 8.07274 14.9817 8.07274 14.9393V13.6739C8.07274 13.6314 8.03643 13.5951 7.98799 13.5951C7.94561 13.5951 7.90324 13.6314 7.90324 13.6739V14.9393C7.90924 14.9817 7.94561 15.018 7.98799 15.018Z" fill="white"/>
<path d="M7.38241 14.2673C7.43085 14.2733 7.46716 14.3096 7.46716 14.3581L7.42479 14.9212C7.41879 14.9696 7.37635 15.006 7.32791 15C7.27948 14.9938 7.24316 14.9575 7.24316 14.9091L7.28554 14.346C7.2916 14.2976 7.33398 14.2612 7.38241 14.2673Z" fill="#F3F3F3"/>
<path d="M7.38262 14.2614C7.43712 14.2675 7.47343 14.3098 7.47343 14.3583L7.43105 14.9214C7.42499 14.9698 7.38262 15.0122 7.32812 15.0061C7.27368 15.0001 7.2373 14.9577 7.2373 14.9093L7.27968 14.3461C7.28574 14.2917 7.32812 14.2554 7.38262 14.2614ZM7.32812 14.994C7.37049 14.994 7.41293 14.9638 7.41293 14.9214L7.4553 14.3583C7.4553 14.3159 7.42499 14.2796 7.37655 14.2735C7.33418 14.2735 7.2918 14.3038 7.2918 14.3462L7.24943 14.9093C7.24943 14.9516 7.28574 14.988 7.32818 14.994H7.32812Z" fill="white"/>
<path d="M6.92837 13.4803C6.97681 13.4923 7.00706 13.5347 7.001 13.5831L6.75275 14.8244C6.74062 14.8728 6.69825 14.9031 6.64981 14.891C6.60137 14.8789 6.57112 14.8365 6.57719 14.788L6.82544 13.5468C6.8315 13.5045 6.87994 13.4742 6.92837 13.4803Z" fill="#F3F3F3"/>
<path d="M6.92853 13.4744C6.98297 13.4865 7.01328 13.535 7.00722 13.5834L6.75897 14.8246C6.74684 14.873 6.69841 14.9094 6.64397 14.8972C6.58947 14.8851 6.55916 14.8367 6.56522 14.7882L6.81347 13.547C6.82559 13.4986 6.87403 13.4683 6.92847 13.4744L6.92853 13.4744ZM6.64397 14.8851C6.68634 14.8912 6.72872 14.867 6.74084 14.8246L6.98903 13.5834C6.99509 13.541 6.97091 13.4986 6.92247 13.4865C6.88009 13.4805 6.83772 13.5047 6.82559 13.5471L6.57734 14.7882C6.57128 14.8367 6.60153 14.873 6.64397 14.8851Z" fill="white"/>
<path d="M6.20181 14.0246C6.25031 14.0367 6.28056 14.0851 6.26844 14.1336L6.11706 14.6785C6.105 14.7269 6.05656 14.7511 6.00813 14.7391C5.99659 14.7363 5.98571 14.7313 5.97612 14.7243C5.96652 14.7173 5.9584 14.7085 5.95221 14.6984C5.94602 14.6882 5.94189 14.677 5.94005 14.6653C5.93822 14.6536 5.93871 14.6416 5.9415 14.6301L6.09288 14.0851C6.105 14.0367 6.15344 14.0125 6.20188 14.0246H6.20181Z" fill="#F3F3F3"/>
<path d="M6.20178 14.0193C6.25028 14.0314 6.28659 14.0859 6.26841 14.1343L6.11703 14.6793C6.10497 14.7277 6.05047 14.758 6.00203 14.7458C5.95359 14.7338 5.91728 14.6793 5.93541 14.6308L6.08678 14.0859C6.09891 14.0375 6.14734 14.0072 6.20178 14.0193V14.0193ZM6.00203 14.7277C6.04441 14.7398 6.09284 14.7156 6.10497 14.6732L6.25628 14.1283C6.26841 14.0859 6.24422 14.0435 6.19578 14.0314C6.15341 14.0193 6.10497 14.0435 6.09284 14.0859L5.94147 14.6308C5.93541 14.6732 5.95959 14.7156 6.00203 14.7277Z" fill="white"/>
<path d="M5.90511 13.1717C5.95354 13.1899 5.97167 13.2444 5.95355 13.2867L5.46917 14.4553C5.45105 14.4977 5.39648 14.5219 5.35417 14.4977C5.31173 14.4735 5.28748 14.4251 5.30567 14.3827L5.79005 13.2141C5.80817 13.1717 5.86273 13.1475 5.90505 13.1717H5.90511Z" fill="#F3F3F3"/>
<path d="M5.9052 13.1657C5.92847 13.1746 5.94727 13.1923 5.95749 13.215C5.9677 13.2377 5.9685 13.2636 5.9597 13.2869L5.47533 14.4554C5.45714 14.5038 5.40264 14.522 5.34814 14.5038C5.32489 14.4949 5.3061 14.4772 5.29589 14.4545C5.28567 14.4318 5.28487 14.406 5.29364 14.3827L5.77802 13.2142C5.80227 13.1657 5.85677 13.1416 5.9052 13.1657ZM5.3542 14.4917C5.39658 14.5099 5.44502 14.4917 5.4632 14.4494L5.94758 13.2808C5.9657 13.2384 5.94152 13.196 5.89914 13.1779C5.85677 13.1597 5.80833 13.1779 5.79014 13.2202L5.30577 14.3888C5.29364 14.4251 5.31183 14.4736 5.3542 14.4917Z" fill="white"/>
<path d="M5.08776 13.5587C5.13013 13.5829 5.14826 13.6313 5.13013 13.6737L4.87582 14.1763C4.85157 14.2187 4.80313 14.2368 4.75469 14.2126C4.71232 14.1884 4.69419 14.14 4.71232 14.0976L4.96669 13.5951C4.99088 13.5527 5.03932 13.5345 5.08776 13.5587Z" fill="#F3F3F3"/>
<path d="M5.08793 13.5527C5.13637 13.5768 5.1545 13.6314 5.13031 13.6798L4.876 14.1823C4.85175 14.2308 4.79725 14.249 4.74887 14.2247C4.70043 14.2005 4.68225 14.146 4.7065 14.0976L4.96075 13.5951C4.985 13.5466 5.0395 13.5285 5.08793 13.5527ZM4.75493 14.2127C4.79731 14.2308 4.84575 14.2187 4.86387 14.1763L5.11818 13.6738C5.13631 13.6374 5.11818 13.589 5.08187 13.5648C5.0395 13.5467 4.99106 13.5587 4.97287 13.6011L4.71856 14.1036C4.70043 14.14 4.71856 14.1884 4.75493 14.2126V14.2127Z" fill="white"/>
<path d="M4.9667 12.6624C5.00907 12.6926 5.0212 12.7471 4.99095 12.7834L4.28857 13.8309C4.26438 13.8732 4.20982 13.8793 4.16751 13.8551C4.12513 13.8248 4.11301 13.7704 4.14326 13.734L4.84563 12.6865C4.86982 12.6442 4.92432 12.6321 4.9667 12.6623V12.6624Z" fill="#F3F3F3"/>
<path d="M4.96678 12.6564C5.00915 12.6868 5.02128 12.7473 4.99703 12.7897L4.29471 13.8372C4.26446 13.8795 4.20996 13.8916 4.16153 13.8614C4.11915 13.8311 4.10703 13.7706 4.13121 13.7281L4.83359 12.6807C4.86384 12.6383 4.9244 12.6262 4.96678 12.6564ZM4.16759 13.8493C4.20384 13.8734 4.2584 13.8674 4.28259 13.8311L4.98496 12.7836C5.00915 12.7473 4.99709 12.6989 4.96071 12.6746C4.9244 12.6504 4.8699 12.6565 4.84571 12.6928L4.14334 13.7342C4.11915 13.7706 4.13121 13.825 4.16759 13.8492V13.8493Z" fill="white"/>
<path d="M4.08263 12.8866C4.11901 12.9168 4.13107 12.9713 4.10082 13.0076L3.74963 13.4496C3.71938 13.486 3.66488 13.492 3.62857 13.4618C3.59226 13.4315 3.58013 13.377 3.61045 13.3406L3.96157 12.8986C3.99182 12.8624 4.04632 12.8563 4.08263 12.8866Z" fill="#F3F3F3"/>
<path d="M4.08871 12.8803C4.13109 12.9106 4.13715 12.9711 4.10684 13.0135L3.75571 13.4555C3.72546 13.4979 3.6649 13.5039 3.62252 13.4676C3.58015 13.4373 3.57409 13.3768 3.6044 13.3344L3.95552 12.8924C3.98577 12.85 4.04634 12.844 4.08871 12.8803ZM3.63465 13.4555C3.6709 13.4857 3.7194 13.4797 3.74965 13.4434L4.10084 13.0014C4.12509 12.9651 4.11896 12.9166 4.08271 12.8864C4.04634 12.8561 3.9979 12.8621 3.96765 12.8985L3.61646 13.3404C3.59227 13.3768 3.59834 13.4312 3.63459 13.4555H3.63465Z" fill="white"/>
<path d="M4.14327 11.9785C4.17959 12.0147 4.17959 12.0693 4.14327 12.0995L3.24721 12.9895C3.21084 13.0259 3.1564 13.0198 3.12609 12.9895C3.09584 12.9593 3.08977 12.8987 3.12609 12.8685L4.01609 11.9785C4.05246 11.9421 4.10696 11.9421 4.14327 11.9785Z" fill="#F3F3F3"/>
<path d="M4.1493 11.9726C4.16675 11.9903 4.17652 12.0142 4.17652 12.0391C4.17652 12.064 4.16675 12.0879 4.1493 12.1057L3.25318 12.9958C3.23541 13.0133 3.21151 13.023 3.18662 13.023C3.16172 13.023 3.13782 13.0133 3.12005 12.9958C3.10257 12.978 3.09277 12.9541 3.09277 12.9292C3.09277 12.9043 3.10257 12.8803 3.12005 12.8626L4.01612 11.9726C4.03388 11.9551 4.0578 11.9453 4.08271 11.9453C4.10762 11.9453 4.13154 11.9551 4.1493 11.9726ZM3.12605 12.9897C3.1563 13.0199 3.2108 13.0199 3.24105 12.9897L4.13718 12.0996C4.16749 12.0694 4.16749 12.0149 4.13718 11.9846C4.10693 11.9543 4.05243 11.9543 4.02218 11.9846L3.12605 12.8746C3.0958 12.9049 3.0958 12.9534 3.12605 12.9896V12.9897Z" fill="white"/>
<path d="M3.23505 12.0267C3.2653 12.0629 3.2653 12.1175 3.22899 12.1477L2.79911 12.511C2.7628 12.5413 2.7083 12.5352 2.67799 12.4989C2.64774 12.4625 2.64774 12.4081 2.68405 12.3778L3.11392 12.0145C3.1503 11.9842 3.20474 11.9903 3.23505 12.0267Z" fill="#F3F3F3"/>
<path d="M3.24127 12.0213C3.27759 12.0637 3.27152 12.1242 3.23521 12.1545L2.80534 12.5178C2.76902 12.5541 2.70846 12.5481 2.67215 12.5057C2.63577 12.4633 2.64184 12.4028 2.67815 12.3724L3.10809 12.0092C3.14434 11.9729 3.20496 11.9789 3.24121 12.0213L3.24127 12.0213ZM2.68421 12.4996C2.71452 12.5359 2.76296 12.5359 2.79921 12.5118L3.22915 12.1484C3.2594 12.1182 3.26546 12.0697 3.23521 12.0334C3.2049 11.9971 3.15646 11.9971 3.12021 12.0213L2.69027 12.3846C2.65396 12.4148 2.65396 12.4633 2.68421 12.4996V12.4996Z" fill="white"/>
<path d="M3.47737 11.1549C3.50762 11.1974 3.4955 11.2518 3.45312 11.2761L2.39962 11.9784C2.35725 12.0026 2.30275 11.9905 2.27856 11.9542C2.24825 11.9118 2.26037 11.8573 2.30275 11.8331L3.35631 11.1308C3.39269 11.1066 3.44712 11.1186 3.47744 11.1549H3.47737Z" fill="#F3F3F3"/>
<path d="M3.48338 11.1551C3.51363 11.1976 3.5015 11.2581 3.45913 11.2884L2.40563 11.9907C2.36325 12.021 2.30269 12.0088 2.27244 11.9604C2.24213 11.9181 2.25432 11.8575 2.29663 11.8273L3.35019 11.1249C3.39257 11.0946 3.45307 11.1068 3.48332 11.1551H3.48338ZM2.28457 11.9483C2.30875 11.9846 2.35719 11.9968 2.3935 11.9726L3.447 11.2702C3.48338 11.246 3.49544 11.1976 3.46519 11.1552C3.441 11.1188 3.39257 11.1068 3.35619 11.1309L2.30269 11.8333C2.26638 11.8636 2.26032 11.912 2.28457 11.9483Z" fill="white"/>
<path d="M2.57501 11.0276C2.59926 11.07 2.58714 11.1245 2.54476 11.1488L2.05432 11.4273C2.01195 11.4515 1.95745 11.4333 1.93326 11.391C1.90901 11.3486 1.92114 11.2941 1.96351 11.2698L2.45395 10.9913C2.49632 10.9671 2.55082 10.9853 2.57507 11.0276H2.57501Z" fill="#F3F3F3"/>
<path d="M2.58114 11.0218C2.60532 11.0702 2.5932 11.1247 2.55082 11.149L2.06039 11.4275C2.01801 11.4517 1.95745 11.4335 1.93326 11.3912C1.90901 11.3427 1.92114 11.2882 1.96351 11.264L2.45395 10.9855C2.49632 10.9612 2.55689 10.9794 2.58107 11.0218H2.58114ZM1.93926 11.3851C1.96351 11.4275 2.01195 11.4396 2.04826 11.4153L2.5387 11.1368C2.57501 11.1126 2.58714 11.0642 2.56901 11.0278C2.54476 10.9855 2.49632 10.9733 2.46001 10.9976L1.96957 11.2761C1.93326 11.2942 1.92114 11.3427 1.93932 11.3851H1.93926Z" fill="white"/>
<path d="M2.98076 10.2223C2.99889 10.2708 2.98076 10.3192 2.93233 10.3373L1.76376 10.8217C1.72139 10.8399 1.66689 10.8157 1.64876 10.7733C1.63058 10.7248 1.64876 10.6764 1.6972 10.6583L2.86576 10.1739C2.90814 10.1558 2.96264 10.1739 2.98076 10.2223Z" fill="#F3F3F3"/>
<path d="M2.98683 10.2168C3.00495 10.2652 2.98683 10.3197 2.93839 10.3439L1.76983 10.8283C1.74654 10.8371 1.72073 10.8363 1.69804 10.826C1.67535 10.8158 1.65763 10.797 1.64876 10.7738C1.63058 10.7254 1.64876 10.6709 1.6972 10.6467L2.86576 10.1623C2.88905 10.1535 2.91486 10.1543 2.93755 10.1645C2.96024 10.1748 2.97796 10.1935 2.98683 10.2168ZM1.66083 10.7677C1.67901 10.8102 1.72745 10.8284 1.76376 10.8162L2.93233 10.3318C2.9747 10.3137 2.99289 10.2652 2.9747 10.2229C2.95658 10.1805 2.90814 10.1623 2.87176 10.1744L1.7032 10.6588C1.66083 10.6769 1.6427 10.7254 1.66083 10.7678V10.7677Z" fill="white"/>
<path d="M2.12713 9.91989C2.14526 9.96833 2.12107 10.0168 2.07263 10.0349L1.53982 10.2105C1.49744 10.2286 1.44294 10.1984 1.43082 10.156C1.41269 10.1076 1.43688 10.0591 1.48532 10.041L2.01813 9.86539C2.06051 9.84726 2.10894 9.87145 2.12713 9.91989Z" fill="#F3F3F3"/>
<path d="M2.13298 9.91422C2.15117 9.96265 2.12698 10.0172 2.07248 10.0353L1.53967 10.2109C1.49123 10.229 1.43673 10.1988 1.41854 10.1503C1.40042 10.1019 1.42461 10.0474 1.47917 10.0293L2.01192 9.85365C2.06036 9.84159 2.11486 9.86578 2.13304 9.91428L2.13298 9.91422ZM1.43073 10.1443C1.44286 10.1867 1.49129 10.211 1.53367 10.1988L2.06648 10.0232C2.10886 10.0112 2.12704 9.96272 2.11492 9.92034C2.10279 9.87797 2.05436 9.85372 2.01198 9.86584L1.47917 10.0415C1.43679 10.0596 1.41861 10.102 1.43073 10.1443Z" fill="white"/>
<path d="M2.67197 9.19942C2.68403 9.24786 2.65378 9.29629 2.60535 9.30236L1.3641 9.54454C1.31566 9.55667 1.27329 9.52029 1.26122 9.47186C1.2491 9.42342 1.27935 9.37498 1.32779 9.36892L2.56903 9.12673C2.61747 9.12073 2.66591 9.15098 2.67191 9.19942H2.67197Z" fill="#F3F3F3"/>
<path d="M2.6842 9.19919C2.69632 9.25369 2.66001 9.30213 2.61157 9.31419L1.37032 9.55638C1.32189 9.5685 1.27345 9.53219 1.26139 9.47769C1.24926 9.42319 1.28557 9.37475 1.33401 9.36269L2.57526 9.1205C2.62364 9.10838 2.67214 9.14469 2.6842 9.19919ZM1.27345 9.47169C1.27951 9.514 1.32189 9.54432 1.36426 9.53825L2.60551 9.29607C2.64789 9.29 2.67814 9.24157 2.66607 9.19919C2.66001 9.15682 2.61764 9.1265 2.5752 9.13257L1.33401 9.37475C1.29164 9.38688 1.26139 9.42925 1.27345 9.47163V9.47169Z" fill="white"/>
<path d="M1.89701 8.73371C1.90301 8.78208 1.87276 8.82452 1.82432 8.83058L1.26732 8.89715C1.21882 8.90321 1.17645 8.8669 1.17045 8.8184C1.16439 8.77002 1.19464 8.72765 1.24307 8.72152L1.80014 8.65496C1.84251 8.6489 1.89095 8.68521 1.89701 8.73371Z" fill="#F3F3F3"/>
<path d="M1.90317 8.73293C1.90917 8.78737 1.87286 8.83581 1.82442 8.84187L1.26742 8.90849C1.21892 8.91456 1.17054 8.87824 1.16448 8.82374C1.15842 8.76924 1.19473 8.72081 1.24317 8.71474L1.80023 8.64812C1.84861 8.64206 1.89711 8.67843 1.90311 8.73287L1.90317 8.73293ZM1.17048 8.81768C1.17654 8.86006 1.21898 8.89643 1.26136 8.89031L1.81836 8.82374C1.86073 8.81768 1.89104 8.77531 1.88498 8.73293C1.87892 8.69049 1.83654 8.65418 1.79417 8.66024L1.23711 8.72687C1.19473 8.73293 1.16448 8.77531 1.17048 8.81768Z" fill="white"/>
<path d="M2.57501 8.1455C2.57501 8.194 2.53876 8.23637 2.49026 8.23637H1.22489C1.17645 8.23637 1.14014 8.194 1.14014 8.14556C1.14014 8.09712 1.17645 8.05469 1.22489 8.05469H2.49032C2.53876 8.05469 2.57514 8.09712 2.57514 8.14556L2.57501 8.1455Z" fill="#F3F3F3"/>
<path d="M2.5811 8.1457C2.5811 8.20027 2.53866 8.24258 2.49022 8.24258H1.22485C1.17641 8.24258 1.13403 8.2002 1.13403 8.1457C1.13403 8.09127 1.17641 8.04883 1.22485 8.04883H2.49028C2.53872 8.04883 2.5811 8.09127 2.5811 8.1457ZM1.1461 8.1397C1.1461 8.18208 1.18241 8.22445 1.22485 8.22445H2.49022C2.5326 8.22445 2.56897 8.18814 2.56897 8.1397C2.56897 8.09733 2.5326 8.05489 2.49022 8.05489H1.22485C1.18247 8.06095 1.14616 8.09733 1.14616 8.1397H1.1461Z" fill="white"/>
<path d="M1.90301 7.53476C1.89689 7.5832 1.86058 7.61951 1.81214 7.61951L1.24901 7.57713C1.20064 7.57107 1.16433 7.5287 1.17033 7.48026C1.17639 7.43182 1.21276 7.39551 1.2612 7.39551L1.82426 7.43788C1.86664 7.44395 1.90301 7.48632 1.90301 7.53476Z" fill="#E2E2E2"/>
<path d="M1.90909 7.53398C1.90302 7.58848 1.86065 7.6248 1.81221 7.6248L1.24909 7.58242C1.20071 7.57636 1.15834 7.53398 1.1644 7.47948C1.1704 7.42505 1.21284 7.38867 1.26127 7.38867L1.82434 7.43105C1.87277 7.43711 1.90909 7.48555 1.90909 7.53398ZM1.1704 7.47948C1.1644 7.52186 1.20071 7.5643 1.24309 7.5643L1.80621 7.60667C1.84852 7.60667 1.8849 7.57636 1.89096 7.52792C1.89702 7.48555 1.86065 7.44317 1.81827 7.44317L1.25515 7.4008C1.21284 7.4008 1.17646 7.43711 1.1704 7.47955V7.47948Z" fill="white"/>
<path d="M2.68418 7.09235C2.67205 7.14078 2.62968 7.1711 2.58124 7.16503L1.34005 6.91072C1.29161 6.8986 1.2613 6.85622 1.27343 6.80778C1.28555 6.75935 1.32793 6.72903 1.37636 6.73516L2.61761 6.98341C2.65999 6.99547 2.69024 7.04391 2.68418 7.09235Z" fill="#F3F3F3"/>
<path d="M2.69006 7.09253C2.67793 7.14703 2.6295 7.17734 2.58106 7.17128L1.33987 6.92303C1.29143 6.91091 1.25512 6.86247 1.26725 6.80803C1.27931 6.75347 1.32775 6.72322 1.37618 6.72928L2.61743 6.97753C2.66587 6.98966 2.69612 7.03809 2.69006 7.09253ZM1.27931 6.80797C1.27325 6.85034 1.29743 6.89272 1.33987 6.90484L2.58112 7.15309C2.6235 7.15916 2.66587 7.13497 2.678 7.08647C2.684 7.04409 2.65981 7.00172 2.61737 6.98959L1.37625 6.74141C1.32781 6.73534 1.2915 6.76559 1.27937 6.80797H1.27931Z" fill="white"/>
<path d="M2.1392 6.36545C2.13642 6.37699 2.13139 6.38786 2.12441 6.39744C2.11743 6.40703 2.10862 6.41515 2.0985 6.42133C2.08837 6.42751 2.07713 6.43164 2.06541 6.43347C2.05369 6.43531 2.04173 6.43481 2.0302 6.43202L1.48526 6.28064C1.43682 6.26852 1.41264 6.22008 1.4247 6.17164C1.42748 6.16011 1.4325 6.14924 1.43949 6.13965C1.44647 6.13006 1.45528 6.12195 1.4654 6.11576C1.47552 6.10958 1.48677 6.10546 1.49849 6.10362C1.51021 6.10179 1.52217 6.10228 1.5337 6.10508L2.07864 6.25645C2.12707 6.26852 2.15126 6.31695 2.1392 6.36539V6.36545Z" fill="#F3F3F3"/>
<path d="M2.14525 6.36593C2.13319 6.41431 2.07869 6.45068 2.03025 6.4325L1.48531 6.28112C1.43688 6.269 1.40656 6.2145 1.41869 6.16612C1.43081 6.11762 1.48531 6.08131 1.53375 6.0995L2.07869 6.25087C2.12713 6.263 2.15744 6.31143 2.14525 6.36587V6.36593ZM1.43688 6.166C1.42475 6.20843 1.449 6.25687 1.49138 6.26893L2.03631 6.42031C2.07869 6.43243 2.12106 6.40818 2.13319 6.35975C2.14525 6.31737 2.12106 6.26893 2.07869 6.25687L1.53375 6.1055C1.49138 6.09943 1.449 6.12362 1.43688 6.16606V6.166Z" fill="white"/>
<path d="M2.99293 6.07511C2.97481 6.12348 2.92024 6.14167 2.87793 6.12348L1.70931 5.63911C1.66693 5.62098 1.64275 5.56648 1.66087 5.52411C1.67906 5.47567 1.73356 5.45748 1.77593 5.47567L2.9445 5.96004C2.99293 5.97817 3.01112 6.03267 2.99293 6.07504V6.07511Z" fill="#F3F3F3"/>
<path d="M2.99907 6.08143C2.9902 6.1047 2.97248 6.1235 2.94977 6.13371C2.92707 6.14393 2.90124 6.14473 2.87795 6.13593L1.70938 5.65156C1.66095 5.63343 1.64282 5.57893 1.66095 5.52443C1.66981 5.50117 1.68754 5.48237 1.71024 5.47215C1.73295 5.46193 1.75878 5.46114 1.78207 5.46993L2.95063 5.95431C2.99907 5.97849 3.0172 6.03306 2.99907 6.08143ZM1.67307 5.53049C1.65495 5.57287 1.67307 5.62131 1.71545 5.63943L2.88401 6.12381C2.92638 6.142 2.96876 6.11774 2.98695 6.07537C3.00507 6.03299 2.98695 5.98456 2.94457 5.96643L1.77601 5.48206C1.73363 5.46993 1.6852 5.48812 1.67307 5.53049Z" fill="white"/>
<path d="M2.59931 5.2574C2.57512 5.29977 2.52668 5.31796 2.48431 5.29977L1.98175 5.04552C1.93937 5.02734 1.92118 4.97284 1.94543 4.9244C1.96962 4.88202 2.01806 4.86384 2.06043 4.88202L2.56293 5.13634C2.60537 5.16052 2.62356 5.21509 2.59931 5.2574Z" fill="#F3F3F3"/>
<path d="M2.60537 5.2642C2.58112 5.31264 2.52662 5.33083 2.47818 5.30658L1.97568 5.05227C1.92724 5.02808 1.90905 4.97358 1.9333 4.92514C1.95749 4.8767 2.01205 4.85852 2.06043 4.88277L2.56293 5.13708C2.61143 5.1552 2.62955 5.21583 2.60537 5.2642ZM1.95143 4.9312C1.9333 4.97358 1.94543 5.02202 1.9878 5.0402L2.4903 5.29452C2.52668 5.31264 2.57512 5.29452 2.5993 5.25814C2.61743 5.21577 2.60537 5.16733 2.56299 5.14914L2.0543 4.89495C2.01799 4.87683 1.96955 4.88889 1.95137 4.93127L1.95143 4.9312Z" fill="white"/>
<path d="M3.48936 5.14276C3.45911 5.1852 3.41068 5.19733 3.3683 5.16701L2.3208 4.47076C2.27849 4.44651 2.27243 4.39201 2.29661 4.34964C2.32086 4.30726 2.37536 4.29514 2.41774 4.32539L3.47124 5.02776C3.50755 5.05201 3.51968 5.10651 3.48936 5.14276Z" fill="#F3F3F3"/>
<path d="M3.49535 5.14864C3.4651 5.19108 3.40454 5.20314 3.36223 5.17895L2.31473 4.47658C2.27235 4.44633 2.26023 4.39183 2.29048 4.34345C2.32079 4.30102 2.38135 4.28889 2.42373 4.31314L3.47116 5.01545C3.5196 5.04577 3.52566 5.10627 3.49535 5.14864ZM2.3026 4.34945C2.27841 4.38577 2.28448 4.44027 2.32073 4.46445L3.37429 5.16689C3.4106 5.19114 3.45904 5.17902 3.48329 5.1427C3.50748 5.10633 3.50141 5.05183 3.46516 5.02764L2.41154 4.32527C2.37523 4.30102 2.32679 4.31314 2.30254 4.34945H2.3026Z" fill="white"/>
<path d="M3.26545 4.26462C3.2352 4.30093 3.1807 4.31306 3.14439 4.28275L2.70239 3.93768C2.66607 3.90737 2.66001 3.85287 2.69026 3.81656C2.72051 3.78025 2.77501 3.76812 2.81139 3.79843L3.25332 4.1435C3.2897 4.17381 3.29576 4.22825 3.26545 4.26462Z" fill="#F3F3F3"/>
<path d="M3.27144 4.27057C3.24119 4.31301 3.18063 4.31907 3.13825 4.28876L2.69625 3.9437C2.65388 3.91345 2.64782 3.85288 2.67813 3.81057C2.70838 3.76813 2.76894 3.76207 2.81125 3.79238L3.25325 4.13745C3.29569 4.16776 3.30175 4.22826 3.27144 4.2707V4.27057ZM2.69019 3.81651C2.65994 3.85282 2.666 3.90126 2.70232 3.93151L3.14432 4.2767C3.18063 4.30088 3.22907 4.29482 3.25932 4.25851C3.28963 4.2222 3.28357 4.17376 3.24725 4.14351L2.80525 3.79832C2.76894 3.77413 2.72044 3.7802 2.69025 3.81651H2.69019Z" fill="white"/>
<path d="M4.16754 4.32542C4.13129 4.3618 4.07673 4.3618 4.04648 4.32542L3.14442 3.43542C3.10811 3.39911 3.11411 3.34461 3.14442 3.3143C3.18073 3.27805 3.23523 3.27805 3.26548 3.3143L4.16161 4.20436C4.19792 4.23461 4.19792 4.29517 4.16767 4.32548L4.16754 4.32542Z" fill="#F3F3F3"/>
<path d="M4.16743 4.33187C4.14967 4.34932 4.12577 4.35909 4.10087 4.35909C4.07597 4.35909 4.05207 4.34932 4.03431 4.33187L3.13812 3.44175C3.12064 3.42398 3.11084 3.40005 3.11084 3.37512C3.11084 3.3502 3.12064 3.32627 3.13812 3.3085C3.15589 3.29104 3.1798 3.28125 3.20471 3.28125C3.22962 3.28125 3.25354 3.29104 3.27131 3.3085L4.16743 4.19856C4.20981 4.23487 4.20981 4.29544 4.16743 4.33175V4.33187ZM3.15037 3.32062C3.12006 3.35094 3.12006 3.40544 3.15037 3.43562L4.04643 4.32569C4.07674 4.356 4.13118 4.356 4.16143 4.32569C4.19174 4.29544 4.19174 4.24094 4.16143 4.21069L3.26537 3.31462C3.23512 3.28437 3.18662 3.28437 3.15037 3.32069V3.32062Z" fill="white"/>
<path d="M4.1131 3.42356C4.07679 3.45387 4.02229 3.45387 3.99198 3.4175L3.6226 2.99368C3.59242 2.95737 3.59842 2.90287 3.63479 2.87262C3.67104 2.84231 3.7256 2.84231 3.75585 2.87862L4.12523 3.3025C4.15548 3.33275 4.14942 3.38725 4.1131 3.42356Z" fill="#F3F3F3"/>
<path d="M4.11917 3.42344C4.0768 3.45975 4.0223 3.45375 3.98592 3.41738L3.61661 2.99356C3.5803 2.95725 3.58636 2.89669 3.62874 2.86038C3.67111 2.824 3.72561 2.83006 3.76192 2.86644L4.1313 3.29019C4.16155 3.33263 4.16155 3.39319 4.11917 3.42344ZM3.6348 2.8725C3.59842 2.90275 3.59842 2.95119 3.62267 2.9875L3.99205 3.41131C4.0223 3.44163 4.07074 3.44769 4.10705 3.41738C4.14336 3.38713 4.14336 3.33863 4.11917 3.30238L3.7498 2.8785C3.71955 2.84225 3.67105 2.84225 3.6348 2.8725Z" fill="white"/>
<path d="M4.98494 3.65297C4.94257 3.68322 4.88807 3.67109 4.86382 3.62872L4.15544 2.58122C4.13119 2.53884 4.14332 2.48434 4.17963 2.46015C4.222 2.4299 4.2765 2.44203 4.30075 2.4844L5.00307 3.53184C5.03338 3.57422 5.02125 3.62872 4.98494 3.6529V3.65297Z" fill="#F3F3F3"/>
<path d="M4.98486 3.65915C4.94249 3.68947 4.88192 3.67728 4.85161 3.63497L4.1493 2.58747C4.11905 2.54509 4.13117 2.48459 4.17955 2.45434C4.22192 2.42403 4.28249 2.43615 4.3128 2.47853L5.01511 3.52597C5.04536 3.5744 5.03324 3.6289 4.98486 3.65915ZM4.18555 2.4664C4.14924 2.49059 4.13711 2.53903 4.16136 2.5754L4.86367 3.62284C4.88792 3.65915 4.93636 3.66522 4.97867 3.64097C5.01505 3.61678 5.02717 3.56834 5.00292 3.53203L4.30067 2.49059C4.27642 2.45434 4.22192 2.44215 4.18567 2.4664H4.18555Z" fill="white"/>
<path d="M5.11212 2.75766C5.06974 2.78185 5.01524 2.76978 4.99106 2.72741L4.71249 2.23697C4.68831 2.1946 4.70643 2.1401 4.74887 2.11585C4.79124 2.09166 4.84574 2.10372 4.86993 2.14616L5.14843 2.63653C5.16662 2.67891 5.15449 2.73341 5.11218 2.75766H5.11212Z" fill="#F3F3F3"/>
<path d="M5.11211 2.76372C5.06367 2.78791 5.00917 2.77585 4.98498 2.73341L4.70642 2.24303C4.68223 2.2006 4.69436 2.1401 4.74279 2.11585C4.79123 2.09166 4.84573 2.10372 4.86992 2.14616L5.14842 2.63653C5.17267 2.67891 5.16054 2.73341 5.11217 2.76372H5.11211ZM4.74886 2.12191C4.71248 2.1461 4.69436 2.19453 4.71854 2.23091L4.99711 2.72135C5.02129 2.7576 5.06973 2.76978 5.10604 2.7516C5.14242 2.72741 5.16054 2.67891 5.13636 2.6426L4.85779 2.15216C4.83967 2.11591 4.78517 2.09766 4.74886 2.12191Z" fill="white"/>
<path d="M5.91719 3.15728C5.86881 3.1754 5.82031 3.15728 5.80219 3.1149L5.31175 1.94628C5.29362 1.9039 5.31781 1.8494 5.36019 1.83122C5.40862 1.81309 5.45706 1.83122 5.47519 1.87359L5.96562 3.04215C5.98381 3.08453 5.95962 3.13903 5.91719 3.15715V3.15728Z" fill="#F3F3F3"/>
<path d="M5.91733 3.16338C5.86895 3.1815 5.81445 3.16338 5.7902 3.11488L5.29977 1.94638C5.29097 1.92309 5.29177 1.89726 5.30198 1.87455C5.3122 1.85185 5.331 1.83412 5.35427 1.82525C5.4027 1.80713 5.4572 1.82525 5.48145 1.87369L5.97183 3.04225C5.99002 3.08463 5.96583 3.13913 5.91739 3.16338H5.91733ZM5.36639 1.83738C5.32402 1.8555 5.30583 1.904 5.32402 1.94031L5.81439 3.10881C5.83252 3.15119 5.88095 3.16931 5.92333 3.15119C5.9657 3.13306 5.98395 3.08456 5.9657 3.04825L5.47533 1.87969C5.45108 1.83731 5.4087 1.81913 5.36633 1.83731L5.36639 1.83738Z" fill="white"/>
<path d="M6.21395 2.29761C6.16552 2.31573 6.11708 2.29148 6.09895 2.24311L5.92333 1.71023C5.9052 1.66786 5.93545 1.61336 5.97783 1.60129C6.0202 1.58917 6.0747 1.60736 6.09283 1.65579L6.26845 2.18861C6.28658 2.23098 6.26239 2.27942 6.21395 2.29754V2.29761Z" fill="#F3F3F3"/>
<path d="M6.21997 2.30329C6.19668 2.31206 6.17087 2.31125 6.14818 2.30104C6.12549 2.29083 6.10777 2.27204 6.0989 2.24879L5.92328 1.71597C5.90515 1.66754 5.9354 1.6131 5.9839 1.59491C6.00719 1.58614 6.033 1.58694 6.05569 1.59716C6.07838 1.60737 6.0961 1.62616 6.10497 1.64941L6.28053 2.18222C6.29265 2.23066 6.2684 2.28516 6.21997 2.30329ZM5.98384 1.60704C5.94147 1.6191 5.91722 1.66754 5.92934 1.70991L6.10497 2.24279C6.11703 2.28516 6.16547 2.30329 6.2079 2.29116C6.25028 2.2791 6.27447 2.23066 6.26234 2.18829L6.08678 1.65541C6.08369 1.64513 6.07848 1.63562 6.07147 1.62749C6.06447 1.61936 6.05583 1.6128 6.04612 1.60823C6.03641 1.60366 6.02584 1.60119 6.01511 1.60097C6.00438 1.60075 5.99373 1.6028 5.98384 1.60697V1.60704Z" fill="white"/>
<path d="M6.92845 2.848C6.88001 2.86012 6.83157 2.82987 6.82551 2.78137L6.5712 1.54019C6.55907 1.49175 6.59545 1.44937 6.64382 1.43725C6.69232 1.42512 6.7407 1.45537 6.74676 1.50387L7.00114 2.74512C7.00714 2.78744 6.97689 2.83587 6.92845 2.848Z" fill="#F3F3F3"/>
<path d="M6.92837 2.85394C6.87387 2.86606 6.82543 2.82969 6.8133 2.78125L6.55899 1.54006C6.54687 1.49162 6.58324 1.43712 6.63168 1.43106C6.68618 1.41894 6.73462 1.45531 6.74668 1.50375L7.00105 2.745C7.01312 2.79337 6.98287 2.84187 6.92837 2.85394ZM6.6438 1.44319C6.60137 1.44925 6.57112 1.49162 6.57718 1.54006L6.83149 2.78131C6.83755 2.82362 6.88593 2.85394 6.92837 2.84181C6.97074 2.83575 7.00099 2.79337 6.99493 2.74494L6.74062 1.50369C6.72855 1.46137 6.68618 1.43712 6.64374 1.44319H6.6438Z" fill="white"/>
<path d="M7.38863 2.06132C7.34019 2.06738 7.29781 2.03713 7.28569 1.98869L7.21306 1.43163C7.207 1.38319 7.24331 1.34082 7.29181 1.33475C7.34019 1.32869 7.38256 1.359 7.39469 1.40744L7.46731 1.96444C7.47338 2.01288 7.43706 2.05525 7.38863 2.06132Z" fill="#F3F3F3"/>
<path d="M7.38858 2.06746C7.33408 2.07352 7.28565 2.03721 7.27958 1.98871L7.20696 1.43171C7.2009 1.38327 7.23721 1.33484 7.29171 1.32877C7.34621 1.32277 7.39465 1.35909 7.40071 1.40752L7.47333 1.96452C7.4794 2.01296 7.44308 2.0614 7.38858 2.06746ZM7.29777 1.3409C7.2554 1.34696 7.21902 1.38934 7.22508 1.43171L7.29777 1.98877C7.30383 2.03115 7.34621 2.0614 7.38858 2.05534C7.43096 2.04934 7.46733 2.0069 7.46127 1.96452L7.38858 1.40752C7.38252 1.36515 7.34015 1.33484 7.29777 1.3409Z" fill="white"/>
<path d="M8.04253 15.3268C12.0017 15.3268 15.2113 12.1172 15.2113 8.15801C15.2113 4.19882 12.0017 0.989258 8.04253 0.989258C4.08334 0.989258 0.873779 4.19882 0.873779 8.15801C0.873779 12.1172 4.08334 15.3268 8.04253 15.3268Z" fill="url(#paint2_linear_88_1468)" fill-opacity="0.2"/>
<g filter="url(#filter1_d_88_1468)">
<path d="M13.0074 3.61133L7.22512 7.31683H7.21905V7.32283L7.21299 7.32889L3.60449 13.2807L8.90837 9.01214L8.91443 9.00614V9.00008L13.0074 3.61139L13.0074 3.61133Z" fill="black" fill-opacity="0.05"/>
</g>
<path d="M12.8982 3.26562L7.18262 7.32831L8.87793 9.0115L12.8982 3.26562Z" fill="#CD151E"/>
<path d="M7.18872 7.31625L8.04247 8.15781L12.8983 3.26562L7.18872 7.31625Z" fill="#FA5153"/>
<path d="M7.18877 7.31647L8.88408 8.99959L3.16846 13.0623L7.18877 7.31641V7.31647Z" fill="#ACACAC"/>
<path d="M3.16846 13.0623L8.04246 8.15803L7.18871 7.31641L3.16846 13.0623Z" fill="#EEEEEE"/>
</g>
<defs>
<filter id="filter0_d_88_1468" x="-3.75" y="-1.58594" width="23.5" height="23.5" filterUnits="userSpaceOnUse" color-interpolation-filters="sRGB">
<feFlood flood-opacity="0" result="BackgroundImageFix"/>
<feColorMatrix in="SourceAlpha" type="matrix" values="0 0 0 0 0 0 0 0 0 0 0 0 0 0 0 0 0 0 127 0" result="hardAlpha"/>
<feOffset dy="2"/>
<feGaussianBlur stdDeviation="2"/>
<feColorMatrix type="matrix" values="0 0 0 0 0 0 0 0 0 0 0 0 0 0 0 0 0 0 0.266007 0"/>
<feBlend mode="normal" in2="BackgroundImageFix" result="effect1_dropShadow_88_1468"/>
<feBlend mode="normal" in="SourceGraphic" in2="effect1_dropShadow_88_1468" result="shape"/>
</filter>
<filter id="filter1_d_88_1468" x="-0.395508" y="0.611328" width="17.4028" height="17.6689" filterUnits="userSpaceOnUse" color-interpolation-filters="sRGB">
<feFlood flood-opacity="0" result="BackgroundImageFix"/>
<feColorMatrix in="SourceAlpha" type="matrix" values="0 0 0 0 0 0 0 0 0 0 0 0 0 0 0 0 0 0 127 0" result="hardAlpha"/>
<feOffset dy="1"/>
<feGaussianBlur stdDeviation="2"/>
<feColorMatrix type="matrix" values="0 0 0 0 0 0 0 0 0 0 0 0 0 0 0 0 0 0 1 0"/>
<feBlend mode="normal" in2="BackgroundImageFix" result="effect1_dropShadow_88_1468"/>
<feBlend mode="normal" in="SourceGraphic" in2="effect1_dropShadow_88_1468" result="shape"/>
</filter>
<linearGradient id="paint0_linear_88_1468" x1="8" y1="15.9141" x2="8" y2="0.414062" gradientUnits="userSpaceOnUse">
<stop offset="0.25" stop-color="#DBDBDA"/>
<stop offset="1" stop-color="white"/>
</linearGradient>
<radialGradient id="paint1_radial_88_1468" cx="0" cy="0" r="1" gradientUnits="userSpaceOnUse" gradientTransform="translate(9.00726 6.58918) scale(8.75046)">
<stop stop-color="#2ABCE1"/>
<stop offset="0.11363" stop-color="#2ABBE1"/>
<stop offset="1" stop-color="#3375F8"/>
</radialGradient>
<linearGradient id="paint2_linear_88_1468" x1="7.90632" y1="6.10818" x2="4.56038" y2="12.1111" gradientUnits="userSpaceOnUse">
<stop stop-opacity="0"/>
<stop offset="1"/>
</linearGradient>
<clipPath id="clip0_88_1468">
<rect y="0.289062" width="16" height="16" rx="8" fill="white"/>
</clipPath>
</defs>
</svg>
