<svg width="64" height="65" viewBox="0 0 64 65" fill="none" xmlns="http://www.w3.org/2000/svg">
<path d="M24.4126 48.82C24.8098 49.6577 25.6718 49.9901 26.6744 49.6415C27.7661 49.2631 28.4985 48.466 29.0389 47.4715C29.3605 47.1688 29.9307 46.0987 30.0253 45.9501C30.2118 45.6555 30.4793 45.5772 30.7792 45.7069C31.1062 45.8474 31.1846 46.1609 31.0495 46.4446C30.2226 48.1741 29.3146 49.8414 27.5202 50.7954C25.407 51.9168 23.2479 50.9737 22.6209 48.6767C22.4912 48.2011 22.675 47.7931 22.7128 47.358C22.7506 46.9391 22.7587 46.8202 22.3021 47.0229C19.5592 48.2417 16.8055 48.1525 14.0951 46.9391C11.5036 45.7744 10.074 42.8911 10.4632 40.059C10.8604 37.1594 12.344 34.976 14.6139 33.2519C15.5949 32.506 16.5866 31.7683 17.6135 31.0873C17.9216 30.8846 17.8216 30.6739 17.8108 30.4631C17.5973 26.4177 18.5783 22.6372 20.4347 19.0782C21.4589 17.1163 22.7128 15.3085 24.7422 14.2167C25.4773 13.8222 26.2555 13.5357 27.0744 13.3898C29.2173 13.0061 30.7955 14.3032 31.1765 16.7164C31.371 17.954 31.2116 19.1782 31.1062 20.405C31.0819 20.6942 31.036 20.9806 31.0008 21.2725C31.2792 21.3725 31.3792 21.1455 31.5197 21.0374C33.6437 19.4133 35.9758 18.4918 38.7106 18.7701C41.421 19.0458 42.9586 21.2536 42.2614 23.8829C41.7696 25.7367 40.7724 27.2716 39.4429 28.6174C39.2375 28.8255 39.0294 29.0281 38.8241 29.2362C38.7997 29.2633 38.7997 29.3119 38.7673 29.4308C40.486 29.2416 42.1668 29.2768 43.7936 30.028C43.8585 28.6633 44.2908 27.5446 45.1664 26.5934C47.2472 24.3369 50.3116 24.4423 52.2276 26.8312C54.0354 29.0822 54.1678 33.668 51.5493 35.7813C51.0737 36.165 50.571 36.4839 50.0063 36.7244C49.6306 36.8838 49.2983 36.9378 49.0902 36.5217C48.8929 36.1271 49.1469 35.892 49.4685 35.7191C50.6602 35.0732 51.4682 34.1112 51.7141 32.7736C52.0033 31.1927 51.7249 29.6821 50.8332 28.3364C50.1765 27.3446 49.2496 26.7096 48.0038 26.8609C46.6608 27.023 45.8096 27.8986 45.2177 29.0471C45.0664 29.3389 45.0043 29.6821 44.9259 30.0091C44.8178 30.4685 44.9718 30.7847 45.3853 31.0711C47.612 32.6249 48.6524 34.8733 48.9713 37.4918C49.2712 39.9455 48.6605 42.1858 47.3472 44.2774C45.9149 46.5581 44.2719 48.6362 42.0993 50.2576C41.1724 50.9494 40.1347 51.4115 39.0078 51.6817C38.6268 51.7736 38.3133 51.7466 38.189 51.3466C38.0539 50.9116 38.3133 50.6765 38.7133 50.5657C39.4429 50.3603 40.1239 50.0576 40.74 49.5118C38.4754 49.6847 36.5811 48.9875 35.0732 47.3175L34.4328 46.4662C33.922 45.4312 33.5869 44.3557 33.5734 43.1856C33.5491 41.0724 35.2813 38.9186 37.2864 38.6025C37.7593 38.5268 38.2268 38.5728 38.6835 38.6998C38.9511 38.7754 39.1132 38.9781 39.07 39.251C39.0267 39.5132 38.8403 39.6645 38.5538 39.6969C36.2704 39.9482 35.084 41.5561 35.5299 43.8315C35.7299 44.8584 36.192 45.7717 36.9378 46.5257C37.0621 46.7689 38.9159 47.8687 39.1078 47.8714C39.6834 48.0822 40.2698 48.0903 40.8643 47.9741C41.2426 47.9363 41.6264 47.9201 41.9696 47.7309C42.7748 47.4985 43.2748 46.8824 43.7558 46.2663C45.2475 44.3422 46.5959 42.3371 47.0121 39.8645C47.5958 36.4001 46.0095 32.1331 42.229 30.8306C41.1859 30.4712 40.1185 30.4361 39.0402 30.455C38.797 30.4604 38.4755 30.5631 38.3457 30.3334C38.0025 29.7226 37.7458 30.1307 37.454 30.355C35.4732 31.8683 33.2113 32.8411 30.9306 33.7815C30.5631 33.9329 30.2415 33.8464 30.1064 33.4573C29.9685 33.0627 30.2117 32.833 30.5603 32.6817C32.2439 31.9386 33.8923 31.1252 35.3921 30.0469C37.3243 28.6552 39.0429 27.069 40.0266 24.8341C40.3536 24.0883 40.5725 23.3154 40.4698 22.4831C40.3617 21.6049 39.8861 21.0347 39.0078 20.8752C36.7622 20.4645 34.7381 21.0293 32.9276 22.3804C32.4844 22.7128 32.0142 22.9371 31.4818 23.0479C30.4496 23.2641 29.5848 22.4831 29.7226 21.4346C29.855 20.4321 29.9307 19.4268 29.9145 18.4188C29.901 17.5081 29.647 16.6488 29.1443 15.8814C28.6876 15.1842 27.9553 14.9409 27.1554 15.1652C25.4394 15.6435 24.2396 16.7947 23.256 18.1999C20.9752 21.4643 19.4322 25.0314 18.9377 29.0092C18.8512 29.6956 18.8809 30.3982 18.8566 31.0927C18.8458 31.3603 18.8863 31.6899 18.5945 31.8061C17.4568 32.2574 16.6461 33.1519 15.7462 33.9085C14.1059 35.284 12.7845 36.8865 12.3575 39.0889C11.8576 41.6561 12.6277 43.8423 14.5356 44.9854C15.7895 45.7366 17.1974 45.9123 18.6161 45.9258C20.224 45.942 21.6994 45.4421 23.0398 44.5503C23.9613 43.9369 24.4936 44.1125 24.8611 45.1529V45.4394C24.7558 46.3825 24.7125 47.3364 24.4477 48.2552C24.4342 48.3389 24.3261 48.7713 24.418 48.8281L24.4126 48.82Z" fill="#18473C"/>
<path d="M29.7011 22.9697C29.9605 23.0157 30.2145 23.067 30.3713 23.3399C30.528 23.6129 30.4821 23.8669 30.3118 24.0939C30.1524 24.3074 29.9578 24.4992 29.7578 24.6776C27.5581 26.6611 25.6638 28.877 24.4694 31.6253C24.4153 31.7496 24.364 31.8739 24.2991 31.9928C24.1586 32.2549 23.9289 32.3171 23.6695 32.2144C23.4317 32.1198 23.3668 31.9225 23.4155 31.6658C23.5479 30.9497 23.837 30.2876 24.1721 29.658C25.4233 27.307 27.0069 25.1991 28.9255 23.3426C29.1498 23.1265 29.393 23.0076 29.7011 22.9697Z" fill="#18473C"/>
<path d="M19.8486 39.667C18.846 39.6318 18.1785 39.0211 18.2164 38.1753C18.2515 37.343 19.1135 36.6134 20.0296 36.6404C20.8106 36.662 21.4483 37.316 21.4267 38.0645C21.3943 39.0914 20.7944 39.7021 19.8486 39.667Z" fill="#18473C"/>
</svg>
