<svg width="176" height="50" viewBox="0 0 176 50" fill="none" xmlns="http://www.w3.org/2000/svg">
<path d="M67.4352 33.6791C67.4153 33.5199 67.4054 33.3408 67.4054 33.1418C67.4253 32.9229 67.4452 32.7139 67.4651 32.5149C67.485 32.296 67.4949 32.0771 67.4949 31.8582C67.3357 31.8781 67.0472 31.8881 66.6292 31.8881C66.2312 31.8682 65.7636 31.8483 65.2263 31.8284C64.7089 31.8085 64.1516 31.7886 63.5546 31.7687C62.9775 31.7289 62.4303 31.699 61.9128 31.6791C61.3954 31.6592 60.9377 31.6493 60.5397 31.6493C60.1616 31.6293 59.9029 31.6393 59.7636 31.6791V31.6493C59.7835 30.3756 59.7835 29.0622 59.7636 27.709C59.7636 26.3358 59.7536 24.9627 59.7337 23.5896C59.7138 22.2164 59.6939 20.8533 59.674 19.5C59.674 18.1269 59.6939 16.7936 59.7337 15.5C59.4551 15.3806 59.087 15.2911 58.6293 15.2314C58.1716 15.1717 57.7039 15.1418 57.2263 15.1418C56.7487 15.1418 56.3009 15.1717 55.883 15.2314C55.4651 15.2712 55.1566 15.3309 54.9576 15.4105C54.9775 16.8035 54.9974 18.0771 55.0173 19.2314C55.0372 20.3657 55.0571 21.4403 55.077 22.4552C55.0969 23.4702 55.1069 24.4652 55.1069 25.4403C55.1069 26.4154 55.0969 27.4304 55.077 28.4851C55.077 29.5199 55.0571 30.6443 55.0173 31.8582C54.9775 33.0522 54.9278 34.3955 54.8681 35.888V36.4254C57.276 36.4652 59.1964 36.4851 60.6293 36.4851C62.082 36.4851 63.2163 36.4751 64.0322 36.4552C64.8681 36.4353 65.4551 36.4154 65.7934 36.3955C66.1516 36.3756 66.4402 36.3756 66.6591 36.3955C66.878 36.3955 67.0472 36.3955 67.1666 36.3955C67.286 36.3756 67.3656 36.2861 67.4054 36.1269C67.4651 35.9477 67.4949 35.6791 67.4949 35.3209C67.4949 34.9428 67.475 34.3955 67.4352 33.6791ZM72.2095 28.903C72.4085 28.9428 72.7269 28.9726 73.1647 28.9925C73.6025 29.0124 74.0901 29.0224 74.6274 29.0224C75.1846 29.0224 75.7617 29.0124 76.3587 28.9925C76.9557 28.9726 77.5129 28.9428 78.0303 28.903C78.5677 28.8632 79.0254 28.8234 79.4035 28.7836C79.8015 28.7438 80.0701 28.704 80.2094 28.6642C80.2691 27.8284 80.2691 27.0025 80.2094 26.1866C80.1497 25.3707 79.9706 24.6244 79.6721 23.9478C79.3935 23.2712 78.9756 22.694 78.4184 22.2164C77.8612 21.7388 77.1249 21.4204 76.2094 21.2612C75.493 21.0821 74.7567 21.0025 74.0005 21.0224C73.2443 21.0423 72.5279 21.1617 71.8513 21.3806C71.1746 21.5796 70.5677 21.8881 70.0304 22.306C69.493 22.704 69.095 23.1916 68.8363 23.7687C68.5975 24.4254 68.4383 25.102 68.3587 25.7985C68.299 26.4751 68.2393 27.1816 68.1796 27.9179C68.1398 28.7338 68.1597 29.5498 68.2393 30.3657C68.3189 31.1816 68.4682 31.9577 68.6871 32.694C68.906 33.4104 69.1945 34.0771 69.5527 34.694C69.911 35.291 70.3587 35.7786 70.896 36.1567C71.3736 36.4353 71.8911 36.6144 72.4483 36.694C73.0055 36.694 73.6124 36.7139 74.2692 36.7537C74.9458 36.7935 75.6025 36.7935 76.2393 36.7537C76.8761 36.7139 77.4632 36.5945 78.0005 36.3955C78.5378 36.1965 78.9756 35.8582 79.3139 35.3806C79.4532 35.2612 79.5627 35.0522 79.6423 34.7537C79.7418 34.4353 79.8214 34.0672 79.8811 33.6492C79.9408 33.2114 79.9905 32.7438 80.0303 32.2463C80.0701 31.7488 80.1099 31.2413 80.1497 30.7239C79.9308 30.6642 79.6522 30.6343 79.3139 30.6343C78.9756 30.6144 78.6174 30.6144 78.2393 30.6343C77.8811 30.6542 77.5328 30.6741 77.1945 30.694C76.8562 30.694 76.5876 30.6841 76.3886 30.6642C76.4284 31.4801 76.299 32.097 76.0005 32.5149C75.7219 32.9129 75.3736 33.1517 74.9557 33.2313C74.5378 33.3109 74.11 33.2413 73.6721 33.0224C73.2343 32.8035 72.896 32.4652 72.6572 32.0075C72.4383 31.6493 72.309 31.2811 72.2692 30.903C72.2493 30.5249 72.2294 30.0373 72.2095 29.4403V28.903ZM75.8214 24.2761C76.1796 24.4552 76.4582 24.7239 76.6572 25.0821C76.8761 25.4403 76.9856 25.8184 76.9856 26.2164C76.9856 26.3756 76.9856 26.4851 76.9856 26.5448C76.9856 26.5846 76.9259 26.6144 76.8065 26.6343C76.707 26.6343 76.5279 26.6244 76.2692 26.6045C76.0104 26.5846 75.6224 26.5746 75.105 26.5746C74.3488 26.5746 73.7716 26.5846 73.3736 26.6045C72.9955 26.6045 72.7169 26.5945 72.5378 26.5746C72.3587 26.5348 72.2592 26.4751 72.2393 26.3955C72.2393 26.296 72.2592 26.1368 72.299 25.9179C72.3388 25.6592 72.3985 25.4105 72.4781 25.1717C72.5776 24.9328 72.7169 24.7239 72.896 24.5448C73.0751 24.3657 73.3139 24.2264 73.6124 24.1269C73.9109 24.0274 74.299 23.9776 74.7766 23.9776C74.9955 23.9776 75.1846 24.0075 75.3438 24.0672C75.503 24.107 75.6622 24.1766 75.8214 24.2761ZM93.8314 26.0672C93.8314 24.9925 93.6324 24.0274 93.2344 23.1717C92.8364 22.296 92.1697 21.6592 91.2344 21.2612C90.717 21.1418 90.1498 21.0523 89.5329 20.9926C88.916 20.913 88.2991 20.8732 87.6821 20.8732C87.0652 20.8732 86.4782 20.903 85.9209 20.9627C85.3836 21.0224 84.9259 21.102 84.5478 21.2015C83.5727 21.4602 82.8165 21.9577 82.2792 22.694C81.7618 23.4304 81.4831 24.2363 81.4433 25.112C81.4234 25.9677 81.6622 26.8035 82.1598 27.6194C82.6772 28.4154 83.4931 29.0025 84.6075 29.3806C85.1647 29.6194 85.7319 29.7886 86.309 29.8881C86.8861 29.9876 87.4035 30.107 87.8612 30.2463C88.319 30.3657 88.6871 30.5448 88.9657 30.7836C89.2443 31.0224 89.3538 31.3806 89.2941 31.8582C89.314 32.4353 89.1349 32.8333 88.7568 33.0522C88.3787 33.2711 87.9607 33.3607 87.503 33.3209C87.0453 33.2612 86.6075 33.092 86.1896 32.8134C85.7916 32.5149 85.5826 32.1368 85.5627 31.6791C84.9458 31.6791 84.2195 31.6692 83.3836 31.6493C82.5478 31.6094 81.8016 31.6293 81.1448 31.709V31.7687V31.8582C81.1448 32.6542 81.304 33.3706 81.6224 34.0075C81.9608 34.6443 82.4185 35.1816 82.9956 35.6194C83.5926 36.0572 84.2991 36.3856 85.115 36.6045C85.9309 36.8234 86.8463 36.9129 87.8612 36.8731C89.0155 36.893 90.0801 36.694 91.0553 36.2761C92.0304 35.8582 92.7468 35.1617 93.2045 34.1866C93.5826 33.092 93.7219 32.1766 93.6224 31.4403C93.5229 30.6841 93.2543 29.9478 92.8165 29.2313C92.3587 28.6343 91.6423 28.2065 90.6672 27.9478C89.6921 27.6692 88.6473 27.4503 87.5329 27.2911C87.0752 27.1318 86.7269 26.893 86.4881 26.5746C86.2493 26.2562 86.1299 25.9378 86.1299 25.6194C86.1299 25.301 86.2394 25.0124 86.4583 24.7537C86.6971 24.4751 87.0453 24.296 87.503 24.2164C87.7617 24.1965 88.0204 24.2363 88.2791 24.3358C88.5578 24.4154 88.7966 24.5448 88.9956 24.7239C89.2145 24.903 89.3737 25.112 89.4732 25.3508C89.5926 25.5896 89.6224 25.8284 89.5627 26.0672C90.2393 26.2065 90.9558 26.2662 91.712 26.2463C92.4881 26.2264 93.1946 26.1667 93.8314 26.0672ZM107.27 26.0672C107.27 24.9925 107.071 24.0274 106.673 23.1717C106.275 22.296 105.608 21.6592 104.673 21.2612C104.156 21.1418 103.588 21.0523 102.972 20.9926C102.355 20.913 101.738 20.8732 101.121 20.8732C100.504 20.8732 99.9168 20.903 99.3596 20.9627C98.8223 21.0224 98.3646 21.102 97.9864 21.2015C97.0113 21.4602 96.2551 21.9577 95.7178 22.694C95.2004 23.4304 94.9218 24.2363 94.882 25.112C94.8621 25.9677 95.1009 26.8035 95.5984 27.6194C96.1158 28.4154 96.9317 29.0025 98.0462 29.3806C98.6034 29.6194 99.1705 29.7886 99.7476 29.8881C100.325 29.9876 100.842 30.107 101.3 30.2463C101.758 30.3657 102.126 30.5448 102.404 30.7836C102.683 31.0224 102.792 31.3806 102.733 31.8582C102.753 32.4353 102.574 32.8333 102.195 33.0522C101.817 33.2711 101.399 33.3607 100.942 33.3209C100.484 33.2612 100.046 33.092 99.6282 32.8134C99.2302 32.5149 99.0213 32.1368 99.0014 31.6791C98.3845 31.6791 97.6581 31.6692 96.8223 31.6493C95.9865 31.6094 95.2402 31.6293 94.5835 31.709V31.7687V31.8582C94.5835 32.6542 94.7427 33.3706 95.0611 34.0075C95.3994 34.6443 95.8571 35.1816 96.4342 35.6194C97.0312 36.0572 97.7377 36.3856 98.5536 36.6045C99.3695 36.8234 100.285 36.9129 101.3 36.8731C102.454 36.893 103.519 36.694 104.494 36.2761C105.469 35.8582 106.185 35.1617 106.643 34.1866C107.021 33.092 107.161 32.1766 107.061 31.4403C106.962 30.6841 106.693 29.9478 106.255 29.2313C105.797 28.6343 105.081 28.2065 104.106 27.9478C103.131 27.6692 102.086 27.4503 100.972 27.2911C100.514 27.1318 100.166 26.893 99.9267 26.5746C99.6879 26.2562 99.5685 25.9378 99.5685 25.6194C99.5685 25.301 99.678 25.0124 99.8969 24.7537C100.136 24.4751 100.484 24.296 100.942 24.2164C101.2 24.1965 101.459 24.2363 101.718 24.3358C101.996 24.4154 102.235 24.5448 102.434 24.7239C102.653 24.903 102.812 25.112 102.912 25.3508C103.031 25.5896 103.061 25.8284 103.001 26.0672C103.678 26.2065 104.394 26.2662 105.151 26.2463C105.927 26.2264 106.633 26.1667 107.27 26.0672ZM108.768 30.3657C108.868 30.3657 109.256 30.3756 109.933 30.3955C110.609 30.4154 111.425 30.4353 112.38 30.4552C113.336 30.4552 114.36 30.4652 115.455 30.4851C116.549 30.505 117.574 30.5249 118.53 30.5448C119.485 30.5647 120.301 30.5746 120.977 30.5746C121.654 30.5746 122.042 30.5746 122.141 30.5746H122.171C122.032 29.7587 121.982 28.9328 122.022 28.097C122.082 27.2612 122.102 26.4254 122.082 25.5896C121.843 25.5896 121.355 25.5896 120.619 25.5896C119.883 25.5896 119.027 25.5896 118.052 25.5896C117.097 25.5896 116.082 25.5896 115.007 25.5896C113.933 25.5896 112.938 25.5896 112.022 25.5896C111.127 25.5896 110.38 25.5896 109.783 25.5896C109.186 25.5896 108.878 25.5896 108.858 25.5896C108.858 25.6493 108.848 25.8881 108.828 26.306C108.828 26.7239 108.818 27.2015 108.798 27.7388C108.798 28.2562 108.788 28.7637 108.768 29.2612C108.768 29.7587 108.768 30.1269 108.768 30.3657ZM127.917 28.903C128.116 28.9428 128.435 28.9726 128.872 28.9925C129.31 29.0124 129.798 29.0224 130.335 29.0224C130.892 29.0224 131.469 29.0124 132.066 28.9925C132.663 28.9726 133.221 28.9428 133.738 28.903C134.275 28.8632 134.733 28.8234 135.111 28.7836C135.509 28.7438 135.778 28.704 135.917 28.6642C135.977 27.8284 135.977 27.0025 135.917 26.1866C135.857 25.3707 135.678 24.6244 135.38 23.9478C135.101 23.2712 134.683 22.694 134.126 22.2164C133.569 21.7388 132.833 21.4204 131.917 21.2612C131.201 21.0821 130.464 21.0025 129.708 21.0224C128.952 21.0423 128.236 21.1617 127.559 21.3806C126.882 21.5796 126.275 21.8881 125.738 22.306C125.201 22.704 124.803 23.1916 124.544 23.7687C124.305 24.4254 124.146 25.102 124.066 25.7985C124.007 26.4751 123.947 27.1816 123.887 27.9179C123.847 28.7338 123.867 29.5498 123.947 30.3657C124.027 31.1816 124.176 31.9577 124.395 32.694C124.614 33.4104 124.902 34.0771 125.26 34.694C125.619 35.291 126.066 35.7786 126.604 36.1567C127.081 36.4353 127.599 36.6144 128.156 36.694C128.713 36.694 129.32 36.7139 129.977 36.7537C130.653 36.7935 131.31 36.7935 131.947 36.7537C132.584 36.7139 133.171 36.5945 133.708 36.3955C134.245 36.1965 134.683 35.8582 135.022 35.3806C135.161 35.2612 135.27 35.0522 135.35 34.7537C135.449 34.4353 135.529 34.0672 135.589 33.6492C135.648 33.2114 135.698 32.7438 135.738 32.2463C135.778 31.7488 135.818 31.2413 135.857 30.7239C135.638 30.6642 135.36 30.6343 135.022 30.6343C134.683 30.6144 134.325 30.6144 133.947 30.6343C133.589 30.6542 133.24 30.6741 132.902 30.694C132.564 30.694 132.295 30.6841 132.096 30.6642C132.136 31.4801 132.007 32.097 131.708 32.5149C131.43 32.9129 131.081 33.1517 130.663 33.2313C130.245 33.3109 129.818 33.2413 129.38 33.0224C128.942 32.8035 128.604 32.4652 128.365 32.0075C128.146 31.6493 128.017 31.2811 127.977 30.903C127.957 30.5249 127.937 30.0373 127.917 29.4403V28.903ZM131.529 24.2761C131.887 24.4552 132.166 24.7239 132.365 25.0821C132.584 25.4403 132.693 25.8184 132.693 26.2164C132.693 26.3756 132.693 26.4851 132.693 26.5448C132.693 26.5846 132.634 26.6144 132.514 26.6343C132.415 26.6343 132.236 26.6244 131.977 26.6045C131.718 26.5846 131.33 26.5746 130.813 26.5746C130.056 26.5746 129.479 26.5846 129.081 26.6045C128.703 26.6045 128.425 26.5945 128.245 26.5746C128.066 26.5348 127.967 26.4751 127.947 26.3955C127.947 26.296 127.967 26.1368 128.007 25.9179C128.046 25.6592 128.106 25.4105 128.186 25.1717C128.285 24.9328 128.425 24.7239 128.604 24.5448C128.783 24.3657 129.022 24.2264 129.32 24.1269C129.619 24.0274 130.007 23.9776 130.484 23.9776C130.703 23.9776 130.892 24.0075 131.051 24.0672C131.211 24.107 131.37 24.1766 131.529 24.2761ZM141.569 23.0821C141.549 22.8035 141.539 22.5547 141.539 22.3358C141.559 22.1169 141.549 21.8383 141.509 21.5C141.509 21.4403 141.43 21.4105 141.27 21.4105C141.111 21.3906 140.932 21.3906 140.733 21.4105C140.534 21.4304 140.335 21.4602 140.136 21.5C139.937 21.5199 139.798 21.5299 139.718 21.5299C139.479 21.5498 139.28 21.5697 139.121 21.5896C138.962 21.5896 138.813 21.5896 138.673 21.5896C138.534 21.5896 138.385 21.5896 138.226 21.5896C138.066 21.5697 137.867 21.5498 137.629 21.5299C137.549 24.1567 137.529 26.694 137.569 29.1418C137.629 31.5895 137.658 34.0373 137.658 36.4851C138.136 36.4453 138.534 36.4353 138.852 36.4552C139.171 36.4751 139.459 36.4851 139.718 36.4851C139.977 36.505 140.226 36.505 140.464 36.4851C140.723 36.4652 141.022 36.4055 141.36 36.306V36.1866C141.44 35.5298 141.479 34.8731 141.479 34.2164C141.479 33.5597 141.459 32.903 141.42 32.2463C141.4 31.5696 141.38 30.903 141.36 30.2463C141.34 29.5697 141.35 28.8831 141.39 28.1866C141.43 27.6493 141.569 27.2513 141.808 26.9925C142.047 26.7139 142.315 26.5348 142.614 26.4552C142.912 26.3557 143.211 26.3358 143.509 26.3955C143.828 26.4353 144.066 26.495 144.226 26.5746C144.246 26.5945 144.265 26.6045 144.285 26.6045C144.305 26.6045 144.325 26.6144 144.345 26.6343C144.504 26.7537 144.624 26.9229 144.703 27.1418C144.803 27.3607 144.872 27.6095 144.912 27.8881C144.972 28.1667 145.012 28.4552 145.032 28.7537C145.051 29.0323 145.071 29.291 145.091 29.5299C145.131 30.0672 145.151 30.6443 145.151 31.2612C145.171 31.8781 145.171 32.495 145.151 33.1119C145.151 33.7288 145.151 34.3259 145.151 34.903C145.151 35.4801 145.171 35.9975 145.211 36.4552C145.907 36.4552 146.524 36.4552 147.061 36.4552C147.619 36.4751 148.246 36.4353 148.942 36.3358C148.902 35.6592 148.892 34.8731 148.912 33.9776C148.932 33.0821 148.952 32.1567 148.972 31.2015C148.992 30.2264 149.002 29.2711 149.002 28.3358C149.022 27.3806 149.012 26.505 148.972 25.709C148.952 24.9129 148.882 24.2363 148.763 23.6791C148.663 23.102 148.514 22.7239 148.315 22.5448C147.897 22.1866 147.43 21.9378 146.912 21.7985C146.395 21.6592 145.857 21.5995 145.3 21.6194C144.763 21.6393 144.236 21.7388 143.718 21.9179C143.201 22.097 142.733 22.3358 142.315 22.6343C142.216 22.7139 142.086 22.7935 141.927 22.8732C141.788 22.9528 141.668 23.0224 141.569 23.0821Z" fill="white"/>
<path fill-rule="evenodd" clip-rule="evenodd" d="M24.9999 1.24378C11.8797 1.24378 1.24378 11.8798 1.24378 25C1.24378 38.1202 11.8797 48.7562 24.9999 48.7562C38.12 48.7562 48.756 38.1202 48.756 25C48.756 11.8798 38.12 1.24378 24.9999 1.24378ZM0 25C0 11.1929 11.1928 0 24.9999 0C38.8069 0 49.9998 11.1929 49.9998 25C49.9998 38.8071 38.8069 50 24.9999 50C11.1928 50 0 38.8071 0 25Z" fill="white"/>
<path d="M26.6292 16.124H23.3705C17.5042 16.124 12.7487 20.8796 12.7487 26.7459V26.7521C12.7487 32.6184 17.5042 37.374 23.3705 37.374H26.6292C32.4955 37.374 37.251 32.6184 37.251 26.7521V26.7459C37.251 20.8796 32.4955 16.124 26.6292 16.124Z" fill="#DBDBD2"/>
<path d="M30.3296 26.1063C30.3296 25.6274 30.7152 25.2418 31.194 25.2418C31.6729 25.2418 32.0585 25.6274 32.0585 26.1063C32.0585 26.1374 32.0585 26.1747 32.0585 26.2058C32.2637 25.8699 32.3818 25.4844 32.3818 25.0677C32.3818 23.855 31.3993 22.8662 30.1804 22.8662C28.9615 22.8662 27.9789 23.8488 27.9789 25.0677C27.9789 26.2866 28.9615 27.2692 30.1804 27.2692C30.5846 27.2692 30.9639 27.1573 31.2873 26.9707C31.2624 26.9707 31.2314 26.9707 31.2003 26.9707C30.7214 26.9707 30.3358 26.5851 30.3358 26.1063H30.3296Z" fill="#18473C"/>
<path d="M17.6369 29.0187C18.2998 29.0187 18.8371 28.7876 18.8371 28.5025C18.8371 28.2174 18.2998 27.9863 17.6369 27.9863C16.974 27.9863 16.4366 28.2174 16.4366 28.5025C16.4366 28.7876 16.974 29.0187 17.6369 29.0187Z" fill="#727B60"/>
<path d="M32.3696 29.0187C33.0324 29.0187 33.5698 28.7876 33.5698 28.5025C33.5698 28.2174 33.0324 27.9863 32.3696 27.9863C31.7067 27.9863 31.1693 28.2174 31.1693 28.5025C31.1693 28.7876 31.7067 29.0187 32.3696 29.0187Z" fill="#727B60"/>
<path d="M24.8445 11.8387C24.8445 11.4034 24.9813 11.0116 25.1554 10.6385C25.342 10.2405 25.541 9.85488 25.7649 9.48175C25.9825 9.12727 26.3059 8.89095 26.6728 8.7417C27.4564 8.42453 28.2649 8.41831 29.0795 8.56135C29.1666 8.57379 29.2412 8.58622 29.2164 8.72926C29.0111 9.89219 28.6753 11.0116 27.9912 11.9569C27.4067 12.7653 26.6355 13.2504 25.6592 13.2815C25.5286 13.2815 25.3917 13.2504 25.2611 13.2131C25.0497 13.1447 25.0248 13.0638 25.1741 12.8773C25.4477 12.5166 25.7213 12.1559 26.0074 11.8076C26.5111 11.1982 27.0273 10.5949 27.5373 9.98548C27.5746 9.94195 27.5932 9.87354 27.6181 9.81757C27.5497 9.80513 27.4751 9.75538 27.4253 9.77404C27.1641 9.87976 26.9091 9.98548 26.6604 10.1161C25.9452 10.483 25.3793 11.0365 24.9253 11.733C24.9005 11.7703 24.8694 11.8014 24.8445 11.8387V11.8387Z" fill="white"/>
<path d="M24.546 13.8557C24.4217 13.5323 24.3159 13.2151 24.1791 12.9104C23.9241 12.3569 23.6505 11.8159 23.2712 11.337C23.1965 11.2437 23.1468 11.138 23.0722 11.0447C23.0348 10.995 22.9602 10.9763 22.9043 10.9452C22.8794 11.0261 22.8234 11.1131 22.8421 11.1815C22.9043 11.4054 22.9851 11.6231 23.0784 11.8345C23.3893 12.5373 23.607 13.2711 23.7687 14.0236C23.7936 14.1355 23.8309 14.235 23.8744 14.3718C23.7438 14.3345 23.6194 14.3159 23.5013 14.2723C22.6306 13.9427 22.1145 13.3146 21.9714 12.4004C21.8408 11.5671 21.8906 10.7276 22.0025 9.89422C22.0025 9.88178 22.015 9.86934 22.0274 9.83203C22.1331 9.86934 22.2388 9.90044 22.3446 9.93775C23.1033 10.1989 23.6878 10.684 24.1418 11.337C24.3595 11.648 24.4528 12.0149 24.4838 12.3818C24.5274 12.8482 24.5274 13.3146 24.546 13.781C24.546 13.8059 24.546 13.8246 24.5398 13.8619L24.546 13.8557Z" fill="white"/>
<path d="M23.6814 32.79C23.6814 34.0089 26.256 34.0276 26.3182 32.79" stroke="#19473C" stroke-width="0.466417" stroke-miterlimit="10"/>
<path d="M12.4129 24.0696C12.3631 23.7524 12.8357 23.4663 12.4377 23.373C11.8656 24.3867 11.8656 25.4937 11.8656 26.6193C11.8656 32.8133 17.8917 37.8382 25.3295 37.8382C29.4401 37.8382 33.1155 36.3022 35.5844 33.883C33.1777 35.3507 30.2424 36.4763 27.0397 36.6815C17.0584 37.3221 13.4017 30.7051 12.4191 24.0696H12.4129Z" fill="#C1C1BC"/>
<path d="M39.7386 24.0366H39.4836C39.1043 24.0366 38.7623 24.2046 38.5197 24.472C37.506 19.1797 33.0409 15.1934 27.6802 15.1934H22.3506C16.9775 15.1934 12.5062 19.1983 11.5049 24.5031C11.2624 24.217 10.9079 24.0366 10.5161 24.0366H10.2611C9.52732 24.0366 8.93652 24.6585 8.93652 25.4172V28.0665C8.93652 28.8314 9.52732 29.4471 10.2611 29.4471H10.5161C10.9079 29.4471 11.2624 29.2667 11.5049 28.9807C12.5062 34.2854 16.9775 38.2904 22.3506 38.2904H27.6802C33.0409 38.2904 37.5123 34.3041 38.5197 29.0118C38.7623 29.2792 39.1043 29.4471 39.4836 29.4471H39.7386C40.4724 29.4471 41.0632 28.8252 41.0632 28.0665V25.4172C41.0632 24.6523 40.4724 24.0366 39.7386 24.0366ZM37.2511 26.7481C37.2511 32.6187 32.4936 37.37 26.6292 37.37H23.3768C17.5061 37.37 12.7549 32.6125 12.7549 26.7481C12.7549 20.8774 17.5124 16.1262 23.3768 16.1262H26.6292C32.4998 16.1262 37.2511 20.8837 37.2511 26.7481V26.7481Z" fill="white"/>
<path d="M17.637 25.0677C17.637 24.8625 17.6681 24.6635 17.7179 24.4707C17.4815 24.8003 17.3447 25.2045 17.3447 25.6399C17.3447 26.7593 18.2527 27.661 19.3659 27.661C19.9504 27.661 20.479 27.4122 20.846 27.0142C20.5412 27.1697 20.1992 27.2692 19.8385 27.2692C18.6258 27.2692 17.637 26.2866 17.637 25.0677V25.0677Z" fill="#C1C1BC"/>
<path d="M27.9539 25.0677C27.9539 24.8625 27.985 24.6635 28.0348 24.4707C27.7984 24.8003 27.6616 25.2045 27.6616 25.6399C27.6616 26.7593 28.5696 27.661 29.6828 27.661C30.2673 27.661 30.7959 27.4122 31.1628 27.0142C30.8581 27.1697 30.5161 27.2692 30.1554 27.2692C28.9427 27.2692 27.9539 26.2866 27.9539 25.0677V25.0677Z" fill="#C1C1BC"/>
<path d="M20.9448 26.9633C20.9448 26.9633 20.9075 26.9633 20.8889 26.9633C20.8764 26.9819 20.864 26.9943 20.8453 27.0068C20.8764 26.9881 20.9137 26.9757 20.9448 26.957V26.9633Z" fill="white"/>
<path d="M22.0335 25.0677C22.0335 23.855 21.0509 22.8662 19.832 22.8662C18.8245 22.8662 17.9725 23.5441 17.7176 24.4707C17.6616 24.6573 17.6367 24.8563 17.6367 25.0677C17.6367 26.2804 18.6193 27.2692 19.8382 27.2692C20.2051 27.2692 20.5472 27.1759 20.8457 27.0142C20.8581 27.0018 20.8768 26.9831 20.8892 26.9707C20.8768 26.9707 20.8705 26.9707 20.8581 26.9707C20.3792 26.9707 19.9937 26.5851 19.9937 26.1063C19.9937 25.6274 20.3792 25.2418 20.8581 25.2418C21.0509 25.2418 21.2312 25.3102 21.3743 25.416C21.5857 25.5714 21.7225 25.8202 21.7225 26.1063C21.7225 26.1374 21.7225 26.1747 21.7225 26.2058C21.9277 25.8699 22.0459 25.4844 22.0459 25.0677H22.0335Z" fill="#18473C"/>
</svg>
