<svg width="319" height="49" viewBox="0 0 319 49" fill="none" xmlns="http://www.w3.org/2000/svg">
<g clip-path="url(#clip0_88_1737)">
<path d="M79.6191 42.8979C79.6191 42.7928 79.672 42.7402 79.7777 42.7402H80.0948C80.2005 42.7402 80.2534 42.7928 80.2534 42.8979V48.1553H82.7375C82.8432 48.1553 82.8961 48.2079 82.8961 48.3131V48.5759C82.8961 48.6811 82.8432 48.7337 82.7375 48.7337H79.7777C79.672 48.7337 79.6191 48.6811 79.6191 48.5759V42.8979Z" fill="#040102"/>
<path d="M88.8157 48.524L91.4056 42.7409C91.4056 42.6883 91.4584 42.6357 91.5641 42.6357H91.6698C91.7227 42.6357 91.7755 42.6883 91.8284 42.7409L94.4182 48.524C94.4711 48.6292 94.4182 48.7343 94.2597 48.7343H93.9426C93.8897 48.7343 93.8368 48.6817 93.784 48.6292L93.1497 47.2097H90.0842L89.45 48.6292C89.45 48.6817 89.3971 48.7343 89.2914 48.7343H88.9743C88.8157 48.7343 88.7629 48.6292 88.8157 48.524ZM92.8855 46.6839C92.4626 45.7376 92.0398 44.7913 91.617 43.8975H91.5641L90.2956 46.6839H92.8855Z" fill="#040102"/>
<path d="M107.79 42.8979C107.79 42.7928 107.843 42.7402 107.949 42.7402H109.852C110.909 42.7402 111.596 43.4237 111.596 44.3175C111.596 45.0009 111.173 45.4741 110.75 45.6844C111.226 45.8421 111.754 46.3153 111.754 47.1039C111.754 48.0502 110.962 48.7337 109.904 48.7337H107.949C107.843 48.7337 107.79 48.6811 107.79 48.5759V42.8979ZM110.01 48.1553C110.644 48.1553 111.067 47.6822 111.067 47.0513C111.067 46.4204 110.486 45.9998 109.852 45.9998H108.425V48.1553H110.01ZM109.852 45.4215C110.539 45.4215 110.909 44.9483 110.909 44.37C110.909 43.7391 110.539 43.3711 109.852 43.3711H108.425V45.4741H109.852V45.4215Z" fill="#040102"/>
<path d="M118.255 42.8979C118.255 42.7928 118.308 42.7402 118.414 42.7402H121.797C121.902 42.7402 121.955 42.7928 121.955 42.8979V43.1608C121.955 43.266 121.902 43.3186 121.797 43.3186H118.89V45.4215H121.374C121.479 45.4215 121.532 45.4741 121.532 45.5792V45.8421C121.532 45.9472 121.479 45.9998 121.374 45.9998H118.89V48.2079H121.797C121.902 48.2079 121.955 48.2605 121.955 48.3656V48.6285C121.955 48.7337 121.902 48.7862 121.797 48.7862H118.414C118.308 48.7862 118.255 48.7337 118.255 48.6285V42.8979Z" fill="#040102"/>
<path d="M127.875 48.524L130.465 42.7409C130.465 42.6883 130.517 42.6357 130.623 42.6357H130.729C130.782 42.6357 130.835 42.6883 130.887 42.7409L133.477 48.524C133.53 48.6292 133.477 48.7343 133.319 48.7343H133.002C132.949 48.7343 132.896 48.6817 132.843 48.6292L132.209 47.2097H129.143L128.509 48.6292C128.509 48.6817 128.456 48.7343 128.35 48.7343H128.033C127.875 48.7343 127.822 48.6292 127.875 48.524ZM131.945 46.6839C131.522 45.7376 131.099 44.7913 130.676 43.8975H130.623L129.355 46.6839H131.945Z" fill="#040102"/>
<path d="M139.397 42.8979C139.397 42.7928 139.45 42.7402 139.556 42.7402H139.873C139.978 42.7402 140.031 42.7928 140.031 42.8979V46.473C140.031 47.4719 140.665 48.2079 141.67 48.2079C142.674 48.2079 143.308 47.4719 143.308 46.473V42.8979C143.308 42.7928 143.361 42.7402 143.467 42.7402H143.784C143.89 42.7402 143.942 42.7928 143.942 42.8979V46.5255C143.942 47.8399 142.991 48.8388 141.67 48.8388C140.295 48.8388 139.397 47.8399 139.397 46.5255V42.8979Z" fill="#040102"/>
<path d="M151.818 43.3186H150.338C150.232 43.3186 150.179 43.266 150.179 43.1608V42.8979C150.179 42.7928 150.232 42.7402 150.338 42.7402H153.985C154.09 42.7402 154.143 42.7928 154.143 42.8979V43.1608C154.143 43.266 154.09 43.3186 153.985 43.3186H152.505V48.5759C152.505 48.6811 152.452 48.7337 152.346 48.7337H152.029C151.923 48.7337 151.871 48.6811 151.871 48.5759V43.3186H151.818Z" fill="#040102"/>
<path d="M160.274 42.8977C160.274 42.8452 160.327 42.74 160.433 42.74H163.816C163.921 42.74 163.974 42.7926 163.974 42.8977V43.1606C163.974 43.2658 163.921 43.3183 163.816 43.3183H160.909V45.4213H163.393C163.499 45.4213 163.551 45.4739 163.551 45.579V45.8419C163.551 45.947 163.499 45.9996 163.393 45.9996H160.909V48.2077H163.816C163.921 48.2077 163.974 48.2603 163.974 48.3654V48.6283C163.974 48.6809 163.921 48.786 163.816 48.786H160.433C160.327 48.786 160.274 48.7334 160.274 48.6283V42.8977ZM161.331 41.8463C161.279 41.7937 161.331 41.6885 161.384 41.6885L162.653 40.9525C162.706 40.8999 162.811 40.8999 162.864 40.9525L163.023 41.2679C163.076 41.3205 163.023 41.4257 162.97 41.4257L161.596 42.004C161.49 42.0566 161.437 42.0566 161.384 42.004L161.331 41.8463Z" fill="#040102"/>
<path d="M179.249 42.8979C179.249 42.7928 179.302 42.7402 179.407 42.7402H179.724C179.83 42.7402 179.883 42.7928 179.883 42.8979V48.5759C179.883 48.6811 179.83 48.7337 179.724 48.7337H179.407C179.302 48.7337 179.249 48.6811 179.249 48.5759V42.8979Z" fill="#040102"/>
<path d="M186.86 42.7935C186.86 42.6883 186.913 42.6357 187.018 42.6357H187.23L191.141 47.4725V42.8986C191.141 42.7935 191.194 42.7409 191.3 42.7409H191.617C191.722 42.7409 191.775 42.7935 191.775 42.8986V48.6817C191.775 48.7869 191.722 48.8395 191.617 48.8395H191.458L187.494 43.9501V48.6292C187.494 48.7343 187.441 48.7869 187.336 48.7869H187.018C186.913 48.7869 186.86 48.7343 186.86 48.6292V42.7935Z" fill="#040102"/>
<path d="M199.386 42.8979C199.386 42.7928 199.439 42.7402 199.545 42.7402H199.862C199.968 42.7402 200.02 42.7928 200.02 42.8979V48.5759C200.02 48.6811 199.968 48.7337 199.862 48.7337H199.545C199.439 48.7337 199.386 48.6811 199.386 48.5759V42.8979Z" fill="#040102"/>
<path d="M209.058 43.3186H207.578C207.473 43.3186 207.42 43.266 207.42 43.1608V42.8979C207.42 42.7928 207.473 42.7402 207.578 42.7402H211.225C211.331 42.7402 211.384 42.7928 211.384 42.8979V43.1608C211.384 43.266 211.331 43.3186 211.225 43.3186H209.693V48.5759C209.693 48.6811 209.64 48.7337 209.534 48.7337H209.217C209.111 48.7337 209.058 48.6811 209.058 48.5759V43.3186Z" fill="#040102"/>
<path d="M218.519 42.8979C218.519 42.7928 218.572 42.7402 218.678 42.7402H218.995C219.101 42.7402 219.154 42.7928 219.154 42.8979V48.5759C219.154 48.6811 219.101 48.7337 218.995 48.7337H218.678C218.572 48.7337 218.519 48.6811 218.519 48.5759V42.8979Z" fill="#040102"/>
<path d="M226.659 42.8977C226.659 42.8452 226.712 42.74 226.817 42.74H230.2C230.306 42.74 230.359 42.7926 230.359 42.8977V43.1606C230.359 43.2658 230.306 43.3183 230.2 43.3183H227.293V45.4213H229.777C229.883 45.4213 229.936 45.4739 229.936 45.579V45.8419C229.936 45.947 229.883 45.9996 229.777 45.9996H227.293V48.2077H230.2C230.306 48.2077 230.359 48.2603 230.359 48.3654V48.6283C230.359 48.6809 230.306 48.786 230.2 48.786H226.817C226.712 48.786 226.659 48.7334 226.659 48.6283V42.8977ZM227.716 41.8463C227.663 41.7937 227.716 41.6885 227.769 41.6885L229.037 40.9525C229.09 40.8999 229.196 40.8999 229.249 40.9525L229.407 41.2679C229.46 41.3205 229.407 41.4257 229.354 41.4257L227.98 42.004C227.875 42.0566 227.822 42.0566 227.769 42.004L227.716 41.8463Z" fill="#040102"/>
<path d="M237.23 42.8979C237.23 42.7928 237.283 42.7402 237.388 42.7402H240.771C240.877 42.7402 240.93 42.7928 240.93 42.8979V43.1608C240.93 43.266 240.877 43.3186 240.771 43.3186H237.864V45.4215H240.348C240.454 45.4215 240.507 45.4741 240.507 45.5792V45.8421C240.507 45.9472 240.454 45.9998 240.348 45.9998H237.864V48.2079H240.771C240.877 48.2079 240.93 48.2605 240.93 48.3656V48.6285C240.93 48.7337 240.877 48.7862 240.771 48.7862H237.388C237.283 48.7862 237.23 48.7337 237.23 48.6285V42.8979Z" fill="#040102"/>
<path d="M14.3446 2.78411C17.1987 2.78411 23.2769 4.62419 23.2769 16.3482C23.2769 28.1773 16.9873 29.7019 14.2917 29.7019C12.019 29.7019 5.04229 29.1762 5.04229 16.1379C4.98943 3.67786 11.4376 2.78411 14.3446 2.78411ZM13.9746 1.62748C7.84354 1.62748 0.919678 6.99002 0.919678 16.6636C0.919678 24.6548 7.315 30.6483 14.2389 30.6483C21.2156 30.6483 27.3466 25.0754 27.3466 15.8224C27.3466 7.04259 20.5813 1.62748 13.9746 1.62748ZM38.8159 16.5059L53.2451 16.5585V30.2802L56.522 30.3328V2.31094H53.2451V15.2967H38.8159V2.25837H35.5919V30.2802H38.8159V16.5059ZM79.7777 2.25837V30.2802H81.0462V4.51904C84.9574 14.5607 90.19 27.4938 91.1942 30.2802C91.2471 30.438 91.3528 30.4905 91.5113 30.4905H91.8813C92.0399 30.4905 92.1984 30.438 92.2513 30.2802C93.3612 27.231 98.4352 14.5607 102.399 4.51904V30.2802H105.729V2.25837H101.976L92.8855 25.2857C89.2915 16.3482 83.8475 2.67895 83.7946 2.41608C83.6361 2.15321 83.5832 2.20579 83.319 2.20579H79.7777V2.25837ZM125.866 16.9791C118.837 5.14993 117.304 2.36351 117.304 2.20579H113.129L123.277 18.8717V30.1225H126.606V18.2408C128.826 14.2978 136.173 2.7841 136.596 2.20579H135.01C134.693 2.88925 128.562 12.7206 125.866 16.9791ZM165.56 1.7852C159.746 1.68005 152.663 7.35803 152.663 16.8213C152.663 26.3898 159.587 30.9111 166.3 30.9111C171.321 30.9111 175.338 27.5464 177.082 22.6045C177.188 22.3942 177.082 22.1313 177.029 22.1313C176.976 22.1313 176.606 21.921 176.5 21.8684C176.448 21.8159 176.183 21.9736 176.078 22.1313C173.805 26.8629 171.374 29.3339 166.458 29.3339C162.758 29.3339 156.892 27.1258 156.892 16.7688C156.892 5.8334 161.913 3.15212 165.877 2.9944C169.894 2.83668 172.748 4.72934 174.492 7.56833C174.598 7.77862 174.968 7.77862 175.073 7.72605C175.126 7.67348 175.126 7.67348 175.285 7.56833C175.496 7.51575 175.602 7.30546 175.443 7.09517C172.008 2.88925 169.735 1.83777 165.56 1.7852ZM189.925 3.20469C191.088 3.15212 192.832 3.2047 193.308 3.25727C198.065 3.73043 199.069 6.04368 199.069 9.40841C199.069 13.6669 195.898 14.8235 193.308 15.139C192.409 15.2441 190.137 15.1916 187.97 15.1916V4.36132C187.97 3.25727 188.075 3.30984 189.925 3.20469ZM184.481 1.9955V30.2277L187.97 30.1751V16.3482H192.304L199.703 30.1225L204.196 30.1751C203.35 29.0185 197.695 20.4489 194.841 16.1379C198.435 15.7699 203.086 13.404 203.086 9.30327C203.086 4.67676 199.333 2.04807 192.621 2.04807H184.481V1.9955ZM213.34 30.1225C214.608 30.1225 232.896 30.1751 233.107 30.1225V28.9659H218.836C217.357 28.9659 217.092 28.1247 217.092 26.6527L217.039 16.4007C217.039 16.1904 217.251 16.0853 217.462 16.0853H220.792V15.1916H217.304C217.039 15.1916 216.987 15.0338 216.987 14.7184C216.987 14.4555 217.092 5.57052 217.092 4.78191C217.092 3.57271 217.621 3.25727 218.784 3.25727H233.107V2.25837L213.34 2.20579V30.1225ZM249.597 4.93963L254.566 18.9769H244.999C244.788 18.9769 244.576 18.7666 244.788 18.346C244.946 18.0305 247.695 10.197 249.597 4.93963ZM248.91 3.09955L238.921 30.2277C239.397 30.2277 237.705 30.3328 240.559 30.2802C242.145 25.128 243.784 20.9221 243.889 20.6067C243.942 20.3438 244.312 20.2386 244.682 20.2386C245.052 20.2386 251.024 20.1861 255.041 20.1861L258.371 30.2277H261.912L252.082 2.31094C252.029 1.99549 251.817 1.89035 251.447 1.89035L248.91 3.09955ZM270.052 2.25837V30.2802H271.32V4.51904C275.232 14.5607 280.464 27.4938 281.468 30.2802C281.521 30.438 281.627 30.4905 281.785 30.4905H282.155C282.314 30.4905 282.473 30.438 282.525 30.2802C283.635 27.231 288.709 14.5607 292.673 4.51904V30.2802H296.003V2.25837H292.251L283.16 25.2857C279.566 16.3482 274.175 2.67895 274.069 2.41608C273.91 2.15321 273.857 2.20579 273.593 2.20579H270.052V2.25837ZM316.246 0.838867C315.136 0.838867 314.396 2.10064 314.396 3.20469L315.136 21.6581C315.136 21.8684 315.929 22.0787 316.246 22.0787C316.616 22.0787 317.462 21.921 317.462 21.6056L318.096 3.20469C318.043 1.7852 317.303 0.838867 316.246 0.838867ZM316.352 26.8629C315.295 26.8629 314.714 27.6516 314.714 28.5979C314.714 29.5442 315.453 30.2802 316.352 30.2802C317.409 30.2802 317.99 29.4916 317.99 28.5453C317.99 27.6516 317.409 26.8629 316.352 26.8629Z" fill="#040102"/>
</g>
<defs>
<clipPath id="clip0_88_1737">
<rect width="317.176" height="48" fill="white" transform="translate(0.919678 0.838867)"/>
</clipPath>
</defs>
</svg>
